<svg width="18" height="24" viewBox="0 0 18 24" fill="none"
    xmlns="http://www.w3.org/2000/svg">
    <g clip-path="url(#clip0_1_81)">
        <path d="M7.86647 2.60596H3.36676C2.99731 2.60596 2.69678 2.90877 2.69678 3.28102V6.76863C2.69673 7.14088 2.99731 7.44369 3.36676 7.44369H3.71286C3.89171 7.44369 4.03671 7.2976 4.03671 7.11739C4.03671 6.93718 3.89171 6.79108 3.71286 6.79108H3.36676C3.35446 6.79108 3.34448 6.78103 3.34448 6.76863V3.28102C3.34448 3.26862 3.35446 3.25857 3.36676 3.25857H7.86647C8.04532 3.25857 8.19032 3.11247 8.19032 2.93226C8.19032 2.75206 8.04532 2.60596 7.86647 2.60596Z" fill="#B5B5B5"/>
        <path d="M9.59748 2.60596H9.25139C9.07254 2.60596 8.92754 2.75206 8.92754 2.93226C8.92754 3.11247 9.07249 3.25857 9.25135 3.25857H9.59744C9.60974 3.25857 9.61972 3.26862 9.61972 3.28102V6.76863C9.61972 6.78103 9.60974 6.79108 9.59744 6.79108H5.09778C4.91893 6.79108 4.77393 6.93718 4.77393 7.11739C4.77393 7.2976 4.91893 7.44369 5.09778 7.44369H9.59748C9.96693 7.44369 10.2675 7.14088 10.2675 6.76863V3.28102C10.2675 2.90877 9.96693 2.60596 9.59748 2.60596Z" fill="#B5B5B5"/>
        <path d="M3.7129 15.8589C3.15259 15.8589 2.69678 16.3182 2.69678 16.8827C2.69678 17.4472 3.15263 17.9065 3.7129 17.9065C4.27321 17.9065 4.72906 17.4472 4.72906 16.8827C4.72906 16.3182 4.27321 15.8589 3.7129 15.8589ZM3.7129 17.2539C3.50974 17.2539 3.34448 17.0873 3.34448 16.8827C3.34448 16.678 3.50978 16.5115 3.7129 16.5115C3.91606 16.5115 4.08136 16.678 4.08136 16.8827C4.08136 17.0873 3.91606 17.2539 3.7129 17.2539Z" fill="#B5B5B5"/>
        <path d="M6.48219 9.23239C4.96759 9.23239 3.73535 10.474 3.73535 12C3.73535 13.5261 4.96759 14.7677 6.48219 14.7677C7.99678 14.7677 9.22902 13.5261 9.22902 12C9.22902 10.474 7.99678 9.23239 6.48219 9.23239ZM6.48219 14.1151C5.32474 14.1151 4.38306 13.1663 4.38306 12C4.38306 10.8338 5.32474 9.885 6.48219 9.885C7.63964 9.885 8.58132 10.8338 8.58132 12C8.58132 13.1663 7.63964 14.1151 6.48219 14.1151Z" fill="#B5B5B5"/>
        <path d="M3.7129 8.53485H3.02063C2.84178 8.53485 2.69678 8.68095 2.69678 8.86116C2.69678 9.04137 2.84178 9.18746 3.02063 9.18746H3.7129C3.89175 9.18746 4.03675 9.04137 4.03675 8.86116C4.03675 8.68095 3.89175 8.53485 3.7129 8.53485Z" fill="#B5B5B5"/>
        <path d="M9.59766 8.53485H8.9054C8.72654 8.53485 8.58154 8.68095 8.58154 8.86116C8.58154 9.04137 8.72654 9.18746 8.9054 9.18746H9.59766C9.77652 9.18746 9.92152 9.04137 9.92152 8.86116C9.92152 8.68095 9.77652 8.53485 9.59766 8.53485Z" fill="#B5B5B5"/>
        <path d="M7.57651 12.6412L5.8458 10.8974C5.71932 10.77 5.51426 10.77 5.38783 10.8974C5.26135 11.0248 5.26135 11.2314 5.38783 11.3588L7.11854 13.1027C7.18176 13.1664 7.26466 13.1982 7.34753 13.1982C7.43039 13.1982 7.5133 13.1664 7.57651 13.1027C7.70299 12.9752 7.70299 12.7687 7.57651 12.6412Z" fill="#B5B5B5"/>
        <path d="M16.8665 4.34967H16.8442V3.28095C16.8442 3.10074 16.6992 2.95464 16.5203 2.95464C16.3415 2.95464 16.1965 3.10074 16.1965 3.28095V4.34971H16.1742C15.8047 4.34971 15.5042 4.65252 15.5042 5.02478V9.5587C15.5042 10.0092 15.7946 10.3923 16.1965 10.5289V19.1497C16.1965 20.989 14.7113 22.4854 12.8859 22.4854C12.7033 22.4854 12.5243 22.4697 12.3497 22.4409C13.3907 21.7217 14.0751 20.5147 14.0751 19.1496V10.5289C14.477 10.3923 14.7673 10.0091 14.7673 9.55865V5.02473C14.7673 4.65248 14.4668 4.34967 14.0973 4.34967H14.0751V3.28095C14.0751 3.10074 13.9301 2.95464 13.7512 2.95464C13.5724 2.95464 13.4274 3.10074 13.4274 3.28095V4.34971H13.4051C13.0356 4.34971 12.7351 4.65252 12.7351 5.02478V9.5587C12.7351 10.0092 13.0254 10.3923 13.4274 10.5289V19.1497C13.4274 20.4911 12.6371 21.6493 11.5013 22.1785C10.5096 21.7164 9.78133 20.7749 9.61263 19.6504H10.636C11.3871 19.6504 11.9982 19.0346 11.9982 18.2777V2.23464C11.9982 1.47782 11.3871 0.862061 10.6359 0.862061H2.32856C1.5774 0.862061 0.966309 1.47782 0.966309 2.23464V18.2777C0.966309 19.0346 1.5774 19.6503 2.32856 19.6503H6.1895C6.43472 21.614 8.10239 23.1379 10.1168 23.1379C10.6036 23.1379 11.0701 23.0487 11.5013 22.8859C11.9325 23.0486 12.399 23.1379 12.8859 23.1379C15.0685 23.1379 16.8442 21.3488 16.8442 19.1496V10.5289C17.2461 10.3923 17.5364 10.0091 17.5364 9.55865V5.02473C17.5364 4.65252 17.2359 4.34967 16.8665 4.34967ZM13.3828 9.55865V5.02473C13.3828 5.01233 13.3927 5.00228 13.405 5.00228H14.0973C14.1096 5.00228 14.1196 5.01233 14.1196 5.02473V9.55865C14.1196 9.76336 13.9543 9.92986 13.7512 9.92986C13.548 9.92986 13.3828 9.76331 13.3828 9.55865ZM6.48226 18.3001C6.2791 18.3001 6.11385 18.1336 6.11385 17.9289V16.8827C6.11385 16.678 6.27914 16.5115 6.48226 16.5115C6.68538 16.5115 6.85068 16.678 6.85068 16.8827V17.9289C6.85068 18.1336 6.68543 18.3001 6.48226 18.3001ZM6.80612 18.8992C7.20804 18.7626 7.49838 18.3794 7.49838 17.9289V16.8827C7.49838 16.3181 7.04253 15.8588 6.48226 15.8588C5.922 15.8588 5.46614 16.3182 5.46614 16.8827V17.9289C5.46614 18.3794 5.75649 18.7625 6.15841 18.8992V18.9977H2.32856C1.93454 18.9977 1.61401 18.6747 1.61401 18.2777V2.23464C1.61401 1.83767 1.93454 1.51467 2.32856 1.51467H10.6359C11.0299 1.51467 11.3505 1.83767 11.3505 2.23464V18.2777C11.3505 18.6747 11.0299 18.9977 10.6359 18.9977H9.57523V18.8992C9.97716 18.7626 10.2675 18.3794 10.2675 17.9289V16.8827C10.2675 16.3181 9.81165 15.8588 9.25138 15.8588C8.69111 15.8588 8.23526 16.3182 8.23526 16.8827V17.9289C8.23526 18.3794 8.5256 18.7625 8.92753 18.8992V18.9977H6.80612V18.8992ZM9.25138 18.3001C9.04821 18.3001 8.88296 18.1336 8.88296 17.9289V16.8827C8.88296 16.678 9.04826 16.5115 9.25138 16.5115C9.4545 16.5115 9.61979 16.678 9.61979 16.8827V17.9289C9.61979 18.1336 9.45454 18.3001 9.25138 18.3001ZM10.1167 22.4853C8.4601 22.4853 7.08398 21.2529 6.84351 19.6503H8.95866C9.1031 20.807 9.74117 21.811 10.6529 22.4409C10.4783 22.4697 10.2993 22.4853 10.1167 22.4853ZM16.5203 9.92986C16.3172 9.92986 16.1519 9.76331 16.1519 9.55865V5.02473C16.1519 5.01233 16.1619 5.00228 16.1742 5.00228H16.8665C16.8788 5.00228 16.8887 5.01233 16.8887 5.02473V9.55865C16.8887 9.76336 16.7234 9.92986 16.5203 9.92986Z" fill="#B5B5B5"/>
    </g>
    <defs>
        <clipPath id="clip0_1_81">
            <rect width="17.5862" height="22.2759" fill="white" transform="translate(0.207031 0.862061)"/>
        </clipPath>
    </defs>
</svg>
