<svg width="14" height="14" viewBox="0 0 14 14" fill="none" xmlns="http://www.w3.org/2000/svg">
<g clip-path="url(#clip0_85_448)">
<path d="M14 7.00024C14 3.13425 10.866 0.000244141 7 0.000244141C3.134 0.000244141 0 3.13425 0 7.00024C0 10.4941 2.55979 13.3901 5.90625 13.9152V9.02368H4.12891V7.00024H5.90625V5.45806C5.90625 3.70368 6.95133 2.73462 8.55025 2.73462C9.31588 2.73462 10.1172 2.87134 10.1172 2.87134V4.59399H9.23453C8.365 4.59399 8.09375 5.13362 8.09375 5.68774V7.00024H10.0352L9.7248 9.02368H8.09375V13.9152C11.4402 13.3901 14 10.4941 14 7.00024Z" fill="#969696"/>
</g>
<defs>
<clipPath id="clip0_85_448">
<rect width="14" height="14" fill="white" transform="translate(0 0.000244141)"/>
</clipPath>
</defs>
</svg>
