<svg width="14" height="14" viewBox="0 0 14 14" fill="none" xmlns="http://www.w3.org/2000/svg">
<g clip-path="url(#clip0_85_450)">
<path d="M7 1.26079C8.87031 1.26079 9.0918 1.26899 9.82735 1.30181C10.5109 1.33188 10.8801 1.44673 11.1262 1.54243C11.4516 1.66821 11.6867 1.82134 11.9301 2.0647C12.1762 2.31079 12.3266 2.54321 12.4523 2.8686C12.548 3.1147 12.6629 3.48657 12.693 4.16743C12.7258 4.90571 12.734 5.1272 12.734 6.99478C12.734 8.86509 12.7258 9.08657 12.693 9.82212C12.6629 10.5057 12.548 10.8749 12.4523 11.1209C12.3266 11.4463 12.1734 11.6815 11.9301 11.9249C11.684 12.1709 11.4516 12.3213 11.1262 12.4471C10.8801 12.5428 10.5082 12.6577 9.82735 12.6877C9.08906 12.7206 8.86758 12.7288 7 12.7288C5.12969 12.7288 4.9082 12.7206 4.17266 12.6877C3.48906 12.6577 3.11992 12.5428 2.87383 12.4471C2.54844 12.3213 2.31328 12.1682 2.06992 11.9249C1.82383 11.6788 1.67344 11.4463 1.54766 11.1209C1.45195 10.8749 1.33711 10.503 1.30703 9.82212C1.27422 9.08384 1.26602 8.86235 1.26602 6.99478C1.26602 5.12446 1.27422 4.90298 1.30703 4.16743C1.33711 3.48384 1.45195 3.1147 1.54766 2.8686C1.67344 2.54321 1.82656 2.30806 2.06992 2.0647C2.31602 1.8186 2.54844 1.66821 2.87383 1.54243C3.11992 1.44673 3.4918 1.33188 4.17266 1.30181C4.9082 1.26899 5.12969 1.26079 7 1.26079ZM7 0.000244141C5.09961 0.000244141 4.86172 0.00844726 4.11523 0.0412598C3.37148 0.0740723 2.86016 0.194385 2.41719 0.36665C1.95508 0.547119 1.56406 0.78501 1.17578 1.17603C0.784766 1.56431 0.546875 1.95532 0.366406 2.4147C0.194141 2.8604 0.0738281 3.36899 0.0410156 4.11274C0.00820313 4.86196 0 5.09985 0 7.00024C0 8.90063 0.00820313 9.13853 0.0410156 9.88501C0.0738281 10.6288 0.194141 11.1401 0.366406 11.5831C0.546875 12.0452 0.784766 12.4362 1.17578 12.8245C1.56406 13.2127 1.95508 13.4534 2.41445 13.6311C2.86016 13.8034 3.36875 13.9237 4.1125 13.9565C4.85898 13.9893 5.09688 13.9975 6.99727 13.9975C8.89766 13.9975 9.13555 13.9893 9.88203 13.9565C10.6258 13.9237 11.1371 13.8034 11.5801 13.6311C12.0395 13.4534 12.4305 13.2127 12.8188 12.8245C13.207 12.4362 13.4477 12.0452 13.6254 11.5858C13.7977 11.1401 13.918 10.6315 13.9508 9.88774C13.9836 9.14126 13.9918 8.90337 13.9918 7.00298C13.9918 5.10259 13.9836 4.8647 13.9508 4.11821C13.918 3.37446 13.7977 2.86313 13.6254 2.42017C13.4531 1.95532 13.2152 1.56431 12.8242 1.17603C12.4359 0.787744 12.0449 0.547119 11.5855 0.369385C11.1398 0.197119 10.6313 0.0768066 9.8875 0.0439941C9.13828 0.00844727 8.90039 0.000244141 7 0.000244141Z" fill="#969696"/>
<path d="M7 3.40454C5.01484 3.40454 3.4043 5.01509 3.4043 7.00024C3.4043 8.9854 5.01484 10.5959 7 10.5959C8.98516 10.5959 10.5957 8.9854 10.5957 7.00024C10.5957 5.01509 8.98516 3.40454 7 3.40454ZM7 9.33267C5.71211 9.33267 4.66758 8.28813 4.66758 7.00024C4.66758 5.71235 5.71211 4.66782 7 4.66782C8.28789 4.66782 9.33242 5.71235 9.33242 7.00024C9.33242 8.28813 8.28789 9.33267 7 9.33267Z" fill="#969696"/>
<path d="M11.5773 3.26237C11.5773 3.72721 11.2 4.10182 10.7379 4.10182C10.273 4.10182 9.89844 3.72448 9.89844 3.26237C9.89844 2.79752 10.2758 2.42291 10.7379 2.42291C11.2 2.42291 11.5773 2.80026 11.5773 3.26237Z" fill="#969696"/>
</g>
<defs>
<clipPath id="clip0_85_450">
<rect width="14" height="14" fill="white" transform="translate(0 0.000244141)"/>
</clipPath>
</defs>
</svg>
