<svg width="14" height="14" viewBox="0 0 14 14" fill="none" xmlns="http://www.w3.org/2000/svg">
<g clip-path="url(#clip0_85_455)">
<path fill-rule="evenodd" clip-rule="evenodd" d="M14 7.00024C14 10.8662 10.866 14.0002 7 14.0002C3.13401 14.0002 0 10.8662 0 7.00024C0 3.13425 3.13401 0.000244141 7 0.000244141C10.866 0.000244141 14 3.13425 14 7.00024ZM7.25085 5.16796C6.57 5.45115 5.20925 6.03728 3.16861 6.92636C2.83724 7.05813 2.66366 7.18704 2.64785 7.31309C2.62115 7.52612 2.88792 7.61001 3.2512 7.72424C3.30061 7.73978 3.35181 7.75588 3.4043 7.77294C3.76171 7.88912 4.24249 8.02504 4.49242 8.03044C4.71914 8.03533 4.97218 7.94187 5.25155 7.75003C7.15818 6.463 8.1424 5.81247 8.20419 5.79845C8.24778 5.78855 8.30819 5.77611 8.34912 5.81249C8.39005 5.84887 8.38602 5.91777 8.38169 5.93625C8.35526 6.04892 7.30808 7.02247 6.76616 7.52629C6.59722 7.68335 6.47738 7.79476 6.45288 7.82021C6.39801 7.8772 6.34208 7.93112 6.28833 7.98293C5.95629 8.30303 5.70729 8.54306 6.30211 8.93504C6.58796 9.12341 6.81669 9.27918 7.04488 9.43458C7.2941 9.60429 7.54267 9.77357 7.86428 9.98439C7.94622 10.0381 8.02447 10.0939 8.10069 10.1482C8.39071 10.355 8.65128 10.5407 8.97318 10.5111C9.16023 10.4939 9.35344 10.318 9.45157 9.79346C9.68346 8.55375 10.1393 5.86768 10.2446 4.76082C10.2539 4.66384 10.2423 4.53973 10.2329 4.48525C10.2236 4.43077 10.2041 4.35315 10.1333 4.29568C10.0494 4.22763 9.91996 4.21328 9.86205 4.2143C9.59877 4.21894 9.19483 4.35939 7.25085 5.16796Z" fill="#969696"/>
</g>
<defs>
<clipPath id="clip0_85_455">
<rect width="14" height="14" fill="white" transform="translate(0 0.000244141)"/>
</clipPath>
</defs>
</svg>
