<svg width="1440" height="104" viewBox="0 0 1440 104" fill="none" xmlns="http://www.w3.org/2000/svg">
<rect width="1440" height="104" fill="#33302F"/>
<path d="M1245.19 50.2652L1244.91 48.8528H1244.77C1244.53 49.1573 1244.19 49.4382 1243.78 49.7034C1242.88 50.2652 1241.85 50.5538 1240.69 50.5538C1239.12 50.5538 1237.86 50.1326 1236.91 49.282C1235.97 48.4316 1235.49 47.4016 1235.49 46.1766C1235.49 44.7097 1236 43.5393 1237.01 42.6732C1238.02 41.8071 1239.49 41.3779 1241.4 41.3779H1244.63V41.0971C1244.63 40.2856 1244.4 39.638 1243.94 39.1464C1243.48 38.6548 1242.87 38.4129 1242.1 38.4129C1241.37 38.4129 1240.78 38.6002 1240.34 38.9747C1239.9 39.3492 1239.65 39.7784 1239.57 40.2466H1236.06C1236.23 38.9513 1236.83 37.8433 1237.86 36.946C1238.89 36.0409 1240.31 35.5884 1242.11 35.5884C1243.91 35.5884 1245.36 36.119 1246.48 37.1723C1247.59 38.2257 1248.14 39.5365 1248.14 41.0971V50.2729H1245.19V50.2652ZM1244.63 44.4756V44.0543H1241.68C1239.9 44.0543 1239.01 44.6629 1239.01 45.8879C1239.01 46.4497 1239.2 46.9022 1239.6 47.23C1239.99 47.5577 1240.55 47.7216 1241.25 47.7216C1242.32 47.7216 1243.15 47.4328 1243.74 46.8632C1244.33 46.2858 1244.63 45.4899 1244.63 44.4756Z" fill="white"/>
<path d="M1250.39 50.2655V30.4937H1253.9V37.4146H1254.04C1254.3 37.0791 1254.63 36.7748 1255.02 36.5095C1255.94 35.8853 1256.97 35.581 1258.11 35.581C1259.98 35.581 1261.55 36.2754 1262.81 37.6565C1264.08 39.0375 1264.71 40.8399 1264.71 43.0637C1264.71 45.2874 1264.08 47.0899 1262.81 48.4709C1261.55 49.852 1259.98 50.5464 1258.11 50.5464C1256.88 50.5464 1255.81 50.2421 1254.91 49.6414C1254.51 49.3761 1254.18 49.0639 1253.9 48.7127H1253.76L1253.48 50.2655H1250.39ZM1254.91 46.1848C1255.58 46.926 1256.46 47.3005 1257.54 47.3005C1258.63 47.3005 1259.51 46.926 1260.18 46.1848C1260.86 45.4435 1261.19 44.398 1261.19 43.0637C1261.19 41.7294 1260.86 40.6839 1260.18 39.9426C1259.51 39.2014 1258.63 38.8269 1257.54 38.8269C1256.46 38.8269 1255.58 39.2014 1254.91 39.9426C1254.23 40.6839 1253.9 41.7294 1253.9 43.0637C1253.9 44.398 1254.24 45.4357 1254.91 46.1848Z" fill="white"/>
<path d="M1266.4 50.2655V30.4937H1269.91V37.4146H1270.05C1270.31 37.0791 1270.64 36.7748 1271.03 36.5095C1271.95 35.8853 1272.98 35.581 1274.12 35.581C1275.99 35.581 1277.56 36.2754 1278.83 37.6565C1280.09 39.0375 1280.72 40.8399 1280.72 43.0637C1280.72 45.2874 1280.09 47.0899 1278.83 48.4709C1277.56 49.852 1275.99 50.5464 1274.12 50.5464C1272.89 50.5464 1271.82 50.2421 1270.92 49.6414C1270.52 49.3761 1270.19 49.0639 1269.91 48.7127H1269.77L1269.49 50.2655H1266.4ZM1270.92 46.1848C1271.6 46.926 1272.48 47.3005 1273.56 47.3005C1274.65 47.3005 1275.53 46.926 1276.2 46.1848C1276.88 45.4435 1277.21 44.398 1277.21 43.0637C1277.21 41.7294 1276.88 40.6839 1276.2 39.9426C1275.53 39.2014 1274.65 38.8269 1273.56 38.8269C1272.48 38.8269 1271.6 39.2014 1270.92 39.9426C1270.25 40.6839 1269.92 41.7294 1269.92 43.0637C1269.91 44.398 1270.25 45.4357 1270.92 46.1848Z" fill="white"/>
<path d="M1291.26 50.2652L1290.98 48.8528H1290.84C1290.6 49.1573 1290.27 49.4382 1289.86 49.7034C1288.95 50.2652 1287.92 50.5538 1286.77 50.5538C1285.19 50.5538 1283.93 50.1326 1282.99 49.282C1282.04 48.4316 1281.57 47.4016 1281.57 46.1766C1281.57 44.7097 1282.07 43.5393 1283.09 42.6732C1284.1 41.8071 1285.56 41.3779 1287.47 41.3779H1290.7V41.0971C1290.7 40.2856 1290.47 39.638 1290.01 39.1464C1289.55 38.6548 1288.94 38.4129 1288.17 38.4129C1287.44 38.4129 1286.85 38.6002 1286.42 38.9747C1285.97 39.3492 1285.72 39.7784 1285.64 40.2466H1282.13C1282.3 38.9513 1282.9 37.8433 1283.93 36.946C1284.97 36.0409 1286.38 35.5884 1288.18 35.5884C1289.98 35.5884 1291.43 36.119 1292.55 37.1723C1293.67 38.2257 1294.22 39.5365 1294.22 41.0971V50.2729H1291.26V50.2652ZM1290.7 44.4756V44.0543H1287.75C1285.97 44.0543 1285.08 44.6629 1285.08 45.8879C1285.08 46.4497 1285.28 46.9022 1285.67 47.23C1286.07 47.5577 1286.62 47.7216 1287.33 47.7216C1288.4 47.7216 1289.22 47.4328 1289.81 46.8632C1290.41 46.2858 1290.7 45.4899 1290.7 44.4756Z" fill="white"/>
<path d="M1245.3 67.9774H1248.7C1248.58 68.6017 1248.37 69.2025 1248.09 69.7876C1247.81 70.3728 1247.42 70.9502 1246.93 71.5276C1246.44 72.105 1245.78 72.5652 1244.95 72.9244C1244.13 73.2833 1243.2 73.4549 1242.16 73.4549C1240.11 73.4549 1238.41 72.7761 1237.08 71.4183C1235.75 70.0608 1235.08 68.3208 1235.08 66.1984C1235.08 64.0839 1235.75 62.3439 1237.08 60.9784C1238.42 59.6209 1240.11 58.9419 1242.16 58.9419C1243.19 58.9419 1244.12 59.1215 1244.95 59.4726C1245.78 59.8315 1246.44 60.2917 1246.93 60.8535C1247.42 61.4232 1247.81 61.985 1248.09 62.5545C1248.37 63.1242 1248.58 63.6937 1248.7 64.2791H1245.3C1244.75 62.82 1243.71 62.0863 1242.16 62.0863C1241.13 62.0863 1240.25 62.4688 1239.54 63.2335C1238.84 63.9982 1238.48 64.9889 1238.48 66.1907C1238.48 67.3922 1238.84 68.3832 1239.54 69.1479C1240.25 69.9126 1241.13 70.2948 1242.16 70.2948C1243.77 70.3027 1244.81 69.5301 1245.3 67.9774Z" fill="white"/>
<path d="M1251.39 60.9784C1252.72 59.6209 1254.42 58.9419 1256.47 58.9419C1258.51 58.9419 1260.21 59.6209 1261.55 60.9784C1262.88 62.3362 1263.55 64.0762 1263.55 66.1984C1263.55 68.3129 1262.88 70.0529 1261.55 71.4183C1260.21 72.7761 1258.52 73.4549 1256.47 73.4549C1254.42 73.4549 1252.72 72.7761 1251.39 71.4183C1250.05 70.0608 1249.39 68.3208 1249.39 66.1984C1249.39 64.0839 1250.05 62.3439 1251.39 60.9784ZM1253.85 69.1556C1254.56 69.9203 1255.43 70.3027 1256.47 70.3027C1257.5 70.3027 1258.37 69.9203 1259.08 69.1556C1259.79 68.3909 1260.14 67.3999 1260.14 66.1984C1260.14 64.9968 1259.79 64.0059 1259.08 63.2412C1258.37 62.4765 1257.5 62.0943 1256.47 62.0943C1255.43 62.0943 1254.56 62.4765 1253.85 63.2412C1253.14 64.0059 1252.79 64.9968 1252.79 66.1984C1252.79 67.4079 1253.14 68.3909 1253.85 69.1556Z" fill="white"/>
<path d="M1275.26 73.1816L1274.99 71.6759H1274.85C1274.58 72.027 1274.25 72.3236 1273.87 72.5809C1273.01 73.1662 1271.97 73.4548 1270.77 73.4548C1268.95 73.4548 1267.43 72.7838 1266.21 71.4419C1264.98 70.0998 1264.37 68.3518 1264.37 66.1983C1264.37 64.0448 1264.98 62.2972 1266.21 60.955C1267.43 59.6129 1268.95 58.9419 1270.77 58.9419C1271.86 58.9419 1272.86 59.2464 1273.77 59.8471C1274.15 60.1044 1274.46 60.3933 1274.72 60.7208H1274.86V54.0107H1278.27V73.1816H1275.26ZM1268.75 69.2258C1269.4 69.9436 1270.26 70.3104 1271.31 70.3104C1272.37 70.3104 1273.22 69.9515 1273.87 69.2258C1274.53 68.5081 1274.85 67.4935 1274.85 66.1983C1274.85 64.9032 1274.53 63.8966 1273.87 63.1709C1273.22 62.4531 1272.37 62.0863 1271.31 62.0863C1270.26 62.0863 1269.4 62.4454 1268.75 63.1709C1268.1 63.8889 1267.77 64.9032 1267.77 66.1983C1267.77 67.4935 1268.1 68.5001 1268.75 69.2258Z" fill="white"/>
<path d="M1280.44 57.0228V53.7378H1284.12V57.0228H1280.44ZM1280.57 73.1821V59.2153H1283.98V73.1821H1280.57Z" fill="white"/>
<path d="M1286.16 73.1817V59.2151H1289.3L1289.57 60.5806H1289.71C1289.93 60.3074 1290.24 60.0344 1290.63 59.7612C1291.47 59.2151 1292.43 58.9419 1293.52 58.9419C1295.1 58.9419 1296.4 59.488 1297.43 60.5726C1298.46 61.6572 1298.97 63.0773 1298.97 64.8329V73.1817H1295.56V65.1061C1295.56 64.2088 1295.28 63.4831 1294.73 62.929C1294.18 62.3752 1293.46 62.0943 1292.56 62.0943C1291.67 62.0943 1290.95 62.3752 1290.4 62.929C1289.85 63.4831 1289.57 64.2088 1289.57 65.1061V73.1817H1286.16Z" fill="white"/>
<path d="M1300.73 73.8684H1304.27C1304.34 74.1572 1304.46 74.4458 1304.63 74.719C1304.79 74.9919 1305.1 75.2651 1305.57 75.5304C1306.03 75.7956 1306.6 75.9282 1307.26 75.9282C1308.24 75.9282 1309.03 75.6473 1309.63 75.0779C1310.23 74.5081 1310.53 73.7437 1310.53 72.7761V70.8565H1310.39C1310.18 71.1141 1309.87 71.3716 1309.47 71.6212C1308.72 72.1127 1307.76 72.3626 1306.58 72.3626C1304.78 72.3626 1303.29 71.7382 1302.1 70.49C1300.92 69.2415 1300.32 67.6264 1300.32 65.6599C1300.32 63.686 1300.92 62.0786 1302.1 60.8301C1303.29 59.5819 1304.79 58.9575 1306.58 58.9575C1307.71 58.9575 1308.71 59.2307 1309.58 59.7768C1309.97 60.0344 1310.29 60.3073 1310.53 60.5962H1310.67L1310.94 59.2307H1313.94V72.8151C1313.94 74.6567 1313.33 76.1391 1312.13 77.2627C1310.92 78.3862 1309.31 78.948 1307.27 78.948C1306.26 78.948 1305.34 78.7997 1304.53 78.5111C1303.71 78.2146 1303.07 77.8634 1302.62 77.442C1302.17 77.0208 1301.79 76.5683 1301.48 76.0765C1301.18 75.585 1300.99 75.1558 1300.88 74.7893C1300.78 74.4068 1300.73 74.1026 1300.73 73.8684ZM1309.56 62.9916C1308.91 62.2972 1308.1 61.9537 1307.14 61.9537C1306.18 61.9537 1305.37 62.2972 1304.72 62.9916C1304.07 63.686 1303.74 64.5677 1303.74 65.6445C1303.74 66.7212 1304.07 67.6108 1304.72 68.2972C1305.37 68.9919 1306.18 69.3351 1307.14 69.3351C1308.1 69.3351 1308.91 68.9919 1309.56 68.2972C1310.21 67.6028 1310.54 66.7212 1310.54 65.6445C1310.54 64.5756 1310.21 63.686 1309.56 62.9916Z" fill="white"/>
<path d="M1175.97 61.8445C1178.97 58.7937 1182.76 57.2643 1187.37 57.2643C1189.69 57.2643 1191.78 57.6622 1193.64 58.4658C1195.49 59.2618 1196.96 60.2995 1198.07 61.5713C1199.17 62.8431 1200.03 64.115 1200.67 65.3791C1201.3 66.6509 1201.75 67.9384 1202.04 69.2493H1194.4C1193.18 65.9722 1190.83 64.3335 1187.37 64.3335C1185.05 64.3335 1183.09 65.1918 1181.5 66.9162C1179.91 68.6328 1179.12 70.8487 1179.12 73.5562C1179.12 76.2638 1179.91 78.472 1181.5 80.1963C1181.71 80.4149 1181.91 80.6178 1182.12 80.805H1191.39H1192.58C1193.37 79.9778 1193.98 78.9011 1194.41 77.5513H1202.05C1201.82 78.6592 1201.48 79.7438 1201.03 80.805H1225.81L1206.27 23.7285H1188.57L1175.66 61.47L1175.24 62.7028C1175.47 62.4063 1175.71 62.1174 1175.97 61.8445Z" fill="#1ABAA3"/>
<path d="M1171.48 73.6108L1169.02 80.797H1172.94C1171.99 78.6669 1171.49 76.2792 1171.48 73.6108Z" fill="#1ABAA3"/>
<path d="M1037.69 51.2711L1037.41 49.8746H1037.27C1037.03 50.1755 1036.7 50.4533 1036.29 50.7157C1035.4 51.2711 1034.37 51.5566 1033.22 51.5566C1031.66 51.5566 1030.41 51.14 1029.47 50.2991C1028.53 49.458 1028.06 48.4396 1028.06 47.2284C1028.06 45.778 1028.56 44.6208 1029.57 43.7645C1030.57 42.9081 1032.03 42.4838 1033.93 42.4838H1037.13V42.206C1037.13 41.4037 1036.9 40.7633 1036.45 40.2773C1035.99 39.7913 1035.38 39.5521 1034.62 39.5521C1033.89 39.5521 1033.31 39.7372 1032.88 40.1076C1032.44 40.4779 1032.18 40.9022 1032.11 41.3651H1028.62C1028.79 40.0844 1029.38 38.9889 1030.41 38.1017C1031.43 37.2068 1032.84 36.7593 1034.63 36.7593C1036.42 36.7593 1037.86 37.2839 1038.97 38.3254C1040.08 39.3669 1040.63 40.663 1040.63 42.206V51.2788H1037.69V51.2711ZM1037.13 45.5466V45.13H1034.2C1032.44 45.13 1031.55 45.7318 1031.55 46.943C1031.55 47.4985 1031.74 47.946 1032.14 48.27C1032.53 48.594 1033.08 48.7561 1033.78 48.7561C1034.84 48.7561 1035.66 48.4706 1036.25 47.9073C1036.84 47.3365 1037.13 46.5495 1037.13 45.5466Z" fill="white"/>
<path d="M1042.85 51.2706V31.7209H1046.34V38.5641H1046.48C1046.74 38.2324 1047.06 37.9315 1047.46 37.6692C1048.37 37.052 1049.39 36.7511 1050.53 36.7511C1052.38 36.7511 1053.94 37.4377 1055.2 38.8033C1056.45 40.1688 1057.08 41.951 1057.08 44.1497C1057.08 46.3485 1056.45 48.1305 1055.2 49.4962C1053.94 50.8617 1052.38 51.5484 1050.53 51.5484C1049.3 51.5484 1048.24 51.2475 1047.34 50.6534C1046.95 50.391 1046.62 50.0824 1046.34 49.7353H1046.2L1045.92 51.2706H1042.85ZM1047.34 47.2357C1048.01 47.9687 1048.88 48.3388 1049.96 48.3388C1051.04 48.3388 1051.91 47.9687 1052.58 47.2357C1053.25 46.5028 1053.59 45.469 1053.59 44.1497C1053.59 42.8305 1053.25 41.7967 1052.58 41.0638C1051.91 40.3308 1051.04 39.9605 1049.96 39.9605C1048.88 39.9605 1048.01 40.3308 1047.34 41.0638C1046.67 41.7967 1046.34 42.8305 1046.34 44.1497C1046.34 45.469 1046.68 46.5028 1047.34 47.2357Z" fill="white"/>
<path d="M1058.76 51.2706V31.7209H1062.24V38.5641H1062.38C1062.64 38.2324 1062.97 37.9315 1063.36 37.6692C1064.27 37.052 1065.3 36.7511 1066.43 36.7511C1068.29 36.7511 1069.85 37.4377 1071.1 38.8033C1072.36 40.1688 1072.98 41.951 1072.98 44.1497C1072.98 46.3485 1072.36 48.1305 1071.1 49.4962C1069.85 50.8617 1068.29 51.5484 1066.43 51.5484C1065.2 51.5484 1064.14 51.2475 1063.25 50.6534C1062.85 50.391 1062.52 50.0824 1062.24 49.7353H1062.11L1061.83 51.2706H1058.76ZM1063.25 47.2357C1063.92 47.9687 1064.79 48.3388 1065.87 48.3388C1066.95 48.3388 1067.82 47.9687 1068.49 47.2357C1069.16 46.5028 1069.49 45.469 1069.49 44.1497C1069.49 42.8305 1069.16 41.7967 1068.49 41.0638C1067.82 40.3308 1066.95 39.9605 1065.87 39.9605C1064.79 39.9605 1063.92 40.3308 1063.25 41.0638C1062.58 41.7967 1062.24 42.8305 1062.24 44.1497C1062.24 45.469 1062.58 46.5028 1063.25 47.2357Z" fill="white"/>
<path d="M1083.46 51.2711L1083.18 49.8746H1083.04C1082.8 50.1755 1082.47 50.4533 1082.06 50.7157C1081.17 51.2711 1080.14 51.5566 1078.99 51.5566C1077.43 51.5566 1076.18 51.14 1075.24 50.2991C1074.3 49.458 1073.83 48.4396 1073.83 47.2284C1073.83 45.778 1074.33 44.6208 1075.34 43.7645C1076.34 42.9081 1077.8 42.4838 1079.69 42.4838H1082.9V42.206C1082.9 41.4037 1082.67 40.7633 1082.21 40.2773C1081.76 39.7913 1081.15 39.5521 1080.39 39.5521C1079.66 39.5521 1079.08 39.7372 1078.64 40.1076C1078.2 40.4779 1077.95 40.9022 1077.87 41.3651H1074.39C1074.56 40.0844 1075.15 38.9889 1076.18 38.1017C1077.2 37.2068 1078.61 36.7593 1080.39 36.7593C1082.18 36.7593 1083.62 37.2839 1084.74 38.3254C1085.85 39.3669 1086.39 40.663 1086.39 42.206V51.2788H1083.46V51.2711ZM1082.9 45.5466V45.13H1079.97C1078.2 45.13 1077.32 45.7318 1077.32 46.943C1077.32 47.4985 1077.51 47.946 1077.9 48.27C1078.3 48.594 1078.84 48.7561 1079.55 48.7561C1080.61 48.7561 1081.43 48.4706 1082.01 47.9073C1082.61 47.3365 1082.9 46.5495 1082.9 45.5466Z" fill="white"/>
<path d="M1028.76 71.8855V57.6439H1031.97L1032.24 59.0402H1032.38C1032.61 58.7393 1032.88 58.4617 1033.22 58.1993C1033.96 57.6439 1034.8 57.3584 1035.74 57.3584C1036.85 57.3584 1037.85 57.6824 1038.72 58.3381C1039.11 58.67 1039.41 59.0017 1039.64 59.318H1039.78C1040.02 59.0017 1040.36 58.6777 1040.78 58.3381C1041.69 57.6901 1042.75 57.3584 1043.96 57.3584C1045.44 57.3584 1046.69 57.9138 1047.72 59.0171C1048.75 60.1204 1049.27 61.4781 1049.27 63.0829V71.8778H1045.78V63.3682C1045.78 62.4734 1045.57 61.7867 1045.14 61.3006C1044.72 60.8148 1044.14 60.5754 1043.42 60.5754C1042.64 60.5754 1042 60.8379 1041.5 61.3701C1041.01 61.9024 1040.76 62.566 1040.76 63.3682V71.8855H1037.28V63.3682C1037.28 62.4734 1037.06 61.7867 1036.64 61.3006C1036.21 60.8148 1035.64 60.5754 1034.91 60.5754C1034.13 60.5754 1033.49 60.8379 1033 61.3701C1032.51 61.9024 1032.26 62.566 1032.26 63.3682V71.8855H1028.76Z" fill="white"/>
<path d="M1060.85 67.6959H1064.48C1064.39 68.0506 1064.2 68.4441 1063.93 68.8841C1063.66 69.3238 1063.29 69.8022 1062.79 70.3345C1062.3 70.8667 1061.63 71.2987 1060.77 71.6461C1059.92 71.9931 1058.97 72.1629 1057.93 72.1629C1055.82 72.1629 1054.09 71.4685 1052.72 70.0797C1051.36 68.6912 1050.67 66.9166 1050.67 64.7564C1050.67 62.5962 1051.36 60.8219 1052.72 59.4331C1054.09 58.0445 1055.82 57.3501 1057.93 57.3501C1059.88 57.3501 1061.53 58.0368 1062.88 59.4023C1064.23 60.7677 1064.9 62.4574 1064.9 64.4711C1064.9 64.6407 1064.87 64.9724 1064.81 65.4739L1064.76 65.8674H1054.16C1054.3 66.8704 1054.73 67.6805 1055.41 68.2977C1056.1 68.9149 1056.94 69.2158 1057.93 69.2158C1058.67 69.2158 1059.3 69.0536 1059.82 68.7297C1060.34 68.4134 1060.69 68.0663 1060.85 67.6959ZM1054.16 63.5066H1061.41C1061.24 62.5577 1060.86 61.7861 1060.26 61.1923C1059.65 60.5982 1058.88 60.2973 1057.93 60.2973C1056.92 60.2973 1056.1 60.5905 1055.46 61.1766C1054.81 61.7553 1054.38 62.5347 1054.16 63.5066Z" fill="white"/>
<path d="M1076.89 71.8851L1076.62 70.3498H1076.48C1076.2 70.7048 1075.86 71.0134 1075.48 71.2679C1074.58 71.862 1073.52 72.1629 1072.29 72.1629C1070.43 72.1629 1068.88 71.4762 1067.62 70.1107C1066.36 68.745 1065.74 66.9629 1065.74 64.7643C1065.74 62.5654 1066.36 60.7833 1067.62 59.4179C1068.88 58.0522 1070.43 57.3657 1072.29 57.3657C1073.41 57.3657 1074.43 57.6743 1075.36 58.2835C1075.75 58.546 1076.08 58.8392 1076.34 59.1785H1076.48V54.0327H1079.96V71.8851H1076.89ZM1070.22 67.8503C1070.9 68.5831 1071.77 68.9533 1072.85 68.9533C1073.93 68.9533 1074.8 68.5831 1075.47 67.8503C1076.14 67.1174 1076.47 66.0833 1076.47 64.7643C1076.47 63.445 1076.14 62.4112 1075.47 61.6783C1074.8 60.9452 1073.93 60.575 1072.85 60.575C1071.77 60.575 1070.9 60.9452 1070.22 61.6783C1069.55 62.4112 1069.22 63.445 1069.22 64.7643C1069.22 66.0833 1069.56 67.1094 1070.22 67.8503Z" fill="white"/>
<path d="M1082.34 71.8849V57.6431H1085.82V71.8849H1082.34Z" fill="white"/>
<path d="M1096.99 71.8852L1096.71 70.4887H1096.57C1096.33 70.7896 1096 71.0674 1095.59 71.3299C1094.7 71.8852 1093.67 72.1707 1092.52 72.1707C1090.96 72.1707 1089.71 71.7541 1088.77 70.913C1087.83 70.0721 1087.36 69.0537 1087.36 67.8427C1087.36 66.3921 1087.86 65.2349 1088.87 64.3786C1089.87 63.5221 1091.33 63.0978 1093.22 63.0978H1096.43V62.8203C1096.43 62.0179 1096.2 61.3776 1095.75 60.8915C1095.29 60.4054 1094.68 60.1663 1093.92 60.1663C1093.19 60.1663 1092.61 60.3515 1092.18 60.7217C1091.74 61.0921 1091.48 61.5164 1091.4 61.9791H1087.92C1088.09 60.6986 1088.68 59.603 1089.71 58.7159C1090.73 57.8209 1092.14 57.3735 1093.93 57.3735C1095.71 57.3735 1097.16 57.8981 1098.27 58.9396C1099.38 59.9811 1099.92 61.2773 1099.92 62.8203V71.8929H1096.99V71.8852ZM1096.43 66.1607V65.7441H1093.5C1091.74 65.7441 1090.85 66.3459 1090.85 67.5572C1090.85 68.1126 1091.04 68.5602 1091.44 68.8842C1091.83 69.2082 1092.38 69.37 1093.08 69.37C1094.14 69.37 1094.96 69.0848 1095.54 68.5215C1096.14 67.9507 1096.43 67.1637 1096.43 66.1607Z" fill="white"/>
<path d="M981.889 65.6362C980.471 65.6362 979.314 66.1146 978.412 67.0789C977.518 68.0434 977.07 69.2547 977.07 70.7128V80.1636H986.207V70.7128C986.207 69.0926 985.814 67.8351 985.043 66.9555C984.264 66.0762 983.208 65.6362 981.889 65.6362Z" fill="#007C99"/>
<path d="M973.369 61.5703C974.078 62.1798 974.641 62.7739 975.042 63.3446H975.297C975.736 62.7739 976.345 62.1798 977.124 61.5703C978.782 60.39 980.709 59.7959 982.907 59.7959C985.582 59.7959 987.856 60.8066 989.73 62.82C991.611 64.8337 992.544 67.2948 992.544 70.2033V80.1632H1018.42L999.013 23.7285H981.434L969.005 59.8575C970.601 60.035 972.058 60.5983 973.369 61.5703Z" fill="#007C99"/>
<path d="M970.732 70.7125C970.732 69.0923 970.347 67.8349 969.568 66.9555C968.905 66.207 968.057 65.7827 967.008 65.667L962.028 80.1633H970.74V70.7125H970.732Z" fill="#007C99"/>
<path d="M593.65 45.454L590.014 58H588.178L585.262 47.902L582.238 58L580.42 58.018L576.91 45.454H578.656L581.392 56.092L584.416 45.454H586.252L589.132 56.056L591.886 45.454H593.65ZM604.443 52.69C604.443 53.002 604.425 53.332 604.389 53.68H596.505C596.565 54.652 596.895 55.414 597.495 55.966C598.107 56.506 598.845 56.776 599.709 56.776C600.417 56.776 601.005 56.614 601.473 56.29C601.953 55.954 602.289 55.51 602.481 54.958H604.245C603.981 55.906 603.453 56.68 602.661 57.28C601.869 57.868 600.885 58.162 599.709 58.162C598.773 58.162 597.933 57.952 597.189 57.532C596.457 57.112 595.881 56.518 595.461 55.75C595.041 54.97 594.831 54.07 594.831 53.05C594.831 52.03 595.035 51.136 595.443 50.368C595.851 49.6 596.421 49.012 597.153 48.604C597.897 48.184 598.749 47.974 599.709 47.974C600.645 47.974 601.473 48.178 602.193 48.586C602.913 48.994 603.465 49.558 603.849 50.278C604.245 50.986 604.443 51.79 604.443 52.69ZM602.751 52.348C602.751 51.724 602.613 51.19 602.337 50.746C602.061 50.29 601.683 49.948 601.203 49.72C600.735 49.48 600.213 49.36 599.637 49.36C598.809 49.36 598.101 49.624 597.513 50.152C596.937 50.68 596.607 51.412 596.523 52.348H602.751ZM608.243 49.972C608.579 49.384 609.071 48.904 609.719 48.532C610.367 48.16 611.105 47.974 611.933 47.974C612.821 47.974 613.619 48.184 614.327 48.604C615.035 49.024 615.593 49.618 616.001 50.386C616.409 51.142 616.613 52.024 616.613 53.032C616.613 54.028 616.409 54.916 616.001 55.696C615.593 56.476 615.029 57.082 614.309 57.514C613.601 57.946 612.809 58.162 611.933 58.162C611.081 58.162 610.331 57.976 609.683 57.604C609.047 57.232 608.567 56.758 608.243 56.182V58H606.605V44.68H608.243V49.972ZM614.939 53.032C614.939 52.288 614.789 51.64 614.489 51.088C614.189 50.536 613.781 50.116 613.265 49.828C612.761 49.54 612.203 49.396 611.591 49.396C610.991 49.396 610.433 49.546 609.917 49.846C609.413 50.134 609.005 50.56 608.693 51.124C608.393 51.676 608.243 52.318 608.243 53.05C608.243 53.794 608.393 54.448 608.693 55.012C609.005 55.564 609.413 55.99 609.917 56.29C610.433 56.578 610.991 56.722 611.591 56.722C612.203 56.722 612.761 56.578 613.265 56.29C613.781 55.99 614.189 55.564 614.489 55.012C614.789 54.448 614.939 53.788 614.939 53.032ZM622.261 58.162C621.505 58.162 620.827 58.036 620.227 57.784C619.627 57.52 619.153 57.16 618.805 56.704C618.457 56.236 618.265 55.702 618.229 55.102H619.921C619.969 55.594 620.197 55.996 620.605 56.308C621.025 56.62 621.571 56.776 622.243 56.776C622.867 56.776 623.359 56.638 623.719 56.362C624.079 56.086 624.259 55.738 624.259 55.318C624.259 54.886 624.067 54.568 623.683 54.364C623.299 54.148 622.705 53.938 621.901 53.734C621.169 53.542 620.569 53.35 620.101 53.158C619.645 52.954 619.249 52.66 618.913 52.276C618.589 51.88 618.427 51.364 618.427 50.728C618.427 50.224 618.577 49.762 618.877 49.342C619.177 48.922 619.603 48.592 620.155 48.352C620.707 48.1 621.337 47.974 622.045 47.974C623.137 47.974 624.019 48.25 624.691 48.802C625.363 49.354 625.723 50.11 625.771 51.07H624.133C624.097 50.554 623.887 50.14 623.503 49.828C623.131 49.516 622.627 49.36 621.991 49.36C621.403 49.36 620.935 49.486 620.587 49.738C620.239 49.99 620.065 50.32 620.065 50.728C620.065 51.052 620.167 51.322 620.371 51.538C620.587 51.742 620.851 51.91 621.163 52.042C621.487 52.162 621.931 52.3 622.495 52.456C623.203 52.648 623.779 52.84 624.223 53.032C624.667 53.212 625.045 53.488 625.357 53.86C625.681 54.232 625.849 54.718 625.861 55.318C625.861 55.858 625.711 56.344 625.411 56.776C625.111 57.208 624.685 57.55 624.133 57.802C623.593 58.042 622.969 58.162 622.261 58.162ZM629.019 46.534C628.707 46.534 628.443 46.426 628.227 46.21C628.011 45.994 627.903 45.73 627.903 45.418C627.903 45.106 628.011 44.842 628.227 44.626C628.443 44.41 628.707 44.302 629.019 44.302C629.319 44.302 629.571 44.41 629.775 44.626C629.991 44.842 630.099 45.106 630.099 45.418C630.099 45.73 629.991 45.994 629.775 46.21C629.571 46.426 629.319 46.534 629.019 46.534ZM629.811 48.136V58H628.173V48.136H629.811ZM634.601 49.486V55.3C634.601 55.78 634.703 56.122 634.907 56.326C635.111 56.518 635.465 56.614 635.969 56.614H637.175V58H635.699C634.787 58 634.103 57.79 633.647 57.37C633.191 56.95 632.963 56.26 632.963 55.3V49.486H631.685V48.136H632.963V45.652H634.601V48.136H637.175V49.486H634.601ZM648.159 52.69C648.159 53.002 648.141 53.332 648.105 53.68H640.221C640.281 54.652 640.611 55.414 641.211 55.966C641.823 56.506 642.561 56.776 643.425 56.776C644.133 56.776 644.721 56.614 645.189 56.29C645.669 55.954 646.005 55.51 646.197 54.958H647.961C647.697 55.906 647.169 56.68 646.377 57.28C645.585 57.868 644.601 58.162 643.425 58.162C642.489 58.162 641.649 57.952 640.905 57.532C640.173 57.112 639.597 56.518 639.177 55.75C638.757 54.97 638.547 54.07 638.547 53.05C638.547 52.03 638.751 51.136 639.159 50.368C639.567 49.6 640.137 49.012 640.869 48.604C641.613 48.184 642.465 47.974 643.425 47.974C644.361 47.974 645.189 48.178 645.909 48.586C646.629 48.994 647.181 49.558 647.565 50.278C647.961 50.986 648.159 51.79 648.159 52.69ZM646.467 52.348C646.467 51.724 646.329 51.19 646.053 50.746C645.777 50.29 645.399 49.948 644.919 49.72C644.451 49.48 643.929 49.36 643.353 49.36C642.525 49.36 641.817 49.624 641.229 50.152C640.653 50.68 640.323 51.412 640.239 52.348H646.467ZM654.508 53.032C654.508 52.024 654.712 51.142 655.12 50.386C655.528 49.618 656.086 49.024 656.794 48.604C657.514 48.184 658.318 47.974 659.206 47.974C659.974 47.974 660.688 48.154 661.348 48.514C662.008 48.862 662.512 49.324 662.86 49.9V44.68H664.516V58H662.86V56.146C662.536 56.734 662.056 57.22 661.42 57.604C660.784 57.976 660.04 58.162 659.188 58.162C658.312 58.162 657.514 57.946 656.794 57.514C656.086 57.082 655.528 56.476 655.12 55.696C654.712 54.916 654.508 54.028 654.508 53.032ZM662.86 53.05C662.86 52.306 662.71 51.658 662.41 51.106C662.11 50.554 661.702 50.134 661.186 49.846C660.682 49.546 660.124 49.396 659.512 49.396C658.9 49.396 658.342 49.54 657.838 49.828C657.334 50.116 656.932 50.536 656.632 51.088C656.332 51.64 656.182 52.288 656.182 53.032C656.182 53.788 656.332 54.448 656.632 55.012C656.932 55.564 657.334 55.99 657.838 56.29C658.342 56.578 658.9 56.722 659.512 56.722C660.124 56.722 660.682 56.578 661.186 56.29C661.702 55.99 662.11 55.564 662.41 55.012C662.71 54.448 662.86 53.794 662.86 53.05ZM676.284 52.69C676.284 53.002 676.266 53.332 676.23 53.68H668.346C668.406 54.652 668.736 55.414 669.336 55.966C669.948 56.506 670.686 56.776 671.55 56.776C672.258 56.776 672.846 56.614 673.314 56.29C673.794 55.954 674.13 55.51 674.322 54.958H676.086C675.822 55.906 675.294 56.68 674.502 57.28C673.71 57.868 672.726 58.162 671.55 58.162C670.614 58.162 669.774 57.952 669.03 57.532C668.298 57.112 667.722 56.518 667.302 55.75C666.882 54.97 666.672 54.07 666.672 53.05C666.672 52.03 666.876 51.136 667.284 50.368C667.692 49.6 668.262 49.012 668.994 48.604C669.738 48.184 670.59 47.974 671.55 47.974C672.486 47.974 673.314 48.178 674.034 48.586C674.754 48.994 675.306 49.558 675.69 50.278C676.086 50.986 676.284 51.79 676.284 52.69ZM674.592 52.348C674.592 51.724 674.454 51.19 674.178 50.746C673.902 50.29 673.524 49.948 673.044 49.72C672.576 49.48 672.054 49.36 671.478 49.36C670.65 49.36 669.942 49.624 669.354 50.152C668.778 50.68 668.448 51.412 668.364 52.348H674.592ZM682.119 56.488L685.179 48.136H686.925L683.055 58H681.147L677.277 48.136H679.041L682.119 56.488ZM697.536 52.69C697.536 53.002 697.518 53.332 697.482 53.68H689.598C689.658 54.652 689.988 55.414 690.588 55.966C691.2 56.506 691.938 56.776 692.802 56.776C693.51 56.776 694.098 56.614 694.566 56.29C695.046 55.954 695.382 55.51 695.574 54.958H697.338C697.074 55.906 696.546 56.68 695.754 57.28C694.962 57.868 693.978 58.162 692.802 58.162C691.866 58.162 691.026 57.952 690.282 57.532C689.55 57.112 688.974 56.518 688.554 55.75C688.134 54.97 687.924 54.07 687.924 53.05C687.924 52.03 688.128 51.136 688.536 50.368C688.944 49.6 689.514 49.012 690.246 48.604C690.99 48.184 691.842 47.974 692.802 47.974C693.738 47.974 694.566 48.178 695.286 48.586C696.006 48.994 696.558 49.558 696.942 50.278C697.338 50.986 697.536 51.79 697.536 52.69ZM695.844 52.348C695.844 51.724 695.706 51.19 695.43 50.746C695.154 50.29 694.776 49.948 694.296 49.72C693.828 49.48 693.306 49.36 692.73 49.36C691.902 49.36 691.194 49.624 690.606 50.152C690.03 50.68 689.7 51.412 689.616 52.348H695.844ZM701.337 44.68V58H699.699V44.68H701.337ZM708.43 58.162C707.506 58.162 706.666 57.952 705.91 57.532C705.166 57.112 704.578 56.518 704.146 55.75C703.726 54.97 703.516 54.07 703.516 53.05C703.516 52.042 703.732 51.154 704.164 50.386C704.608 49.606 705.208 49.012 705.964 48.604C706.72 48.184 707.566 47.974 708.502 47.974C709.438 47.974 710.284 48.184 711.04 48.604C711.796 49.012 712.39 49.6 712.822 50.368C713.266 51.136 713.488 52.03 713.488 53.05C713.488 54.07 713.26 54.97 712.804 55.75C712.36 56.518 711.754 57.112 710.986 57.532C710.218 57.952 709.366 58.162 708.43 58.162ZM708.43 56.722C709.018 56.722 709.57 56.584 710.086 56.308C710.602 56.032 711.016 55.618 711.328 55.066C711.652 54.514 711.814 53.842 711.814 53.05C711.814 52.258 711.658 51.586 711.346 51.034C711.034 50.482 710.626 50.074 710.122 49.81C709.618 49.534 709.072 49.396 708.484 49.396C707.884 49.396 707.332 49.534 706.828 49.81C706.336 50.074 705.94 50.482 705.64 51.034C705.34 51.586 705.19 52.258 705.19 53.05C705.19 53.854 705.334 54.532 705.622 55.084C705.922 55.636 706.318 56.05 706.81 56.326C707.302 56.59 707.842 56.722 708.43 56.722ZM717.28 49.954C717.604 49.39 718.084 48.922 718.72 48.55C719.368 48.166 720.118 47.974 720.97 47.974C721.846 47.974 722.638 48.184 723.346 48.604C724.066 49.024 724.63 49.618 725.038 50.386C725.446 51.142 725.65 52.024 725.65 53.032C725.65 54.028 725.446 54.916 725.038 55.696C724.63 56.476 724.066 57.082 723.346 57.514C722.638 57.946 721.846 58.162 720.97 58.162C720.13 58.162 719.386 57.976 718.738 57.604C718.102 57.22 717.616 56.746 717.28 56.182V62.68H715.642V48.136H717.28V49.954ZM723.976 53.032C723.976 52.288 723.826 51.64 723.526 51.088C723.226 50.536 722.818 50.116 722.302 49.828C721.798 49.54 721.24 49.396 720.628 49.396C720.028 49.396 719.47 49.546 718.954 49.846C718.45 50.134 718.042 50.56 717.73 51.124C717.43 51.676 717.28 52.318 717.28 53.05C717.28 53.794 717.43 54.448 717.73 55.012C718.042 55.564 718.45 55.99 718.954 56.29C719.47 56.578 720.028 56.722 720.628 56.722C721.24 56.722 721.798 56.578 722.302 56.29C722.818 55.99 723.226 55.564 723.526 55.012C723.826 54.448 723.976 53.788 723.976 53.032ZM739.668 47.956C740.436 47.956 741.12 48.118 741.72 48.442C742.32 48.754 742.794 49.228 743.142 49.864C743.49 50.5 743.664 51.274 743.664 52.186V58H742.044V52.42C742.044 51.436 741.798 50.686 741.306 50.17C740.826 49.642 740.172 49.378 739.344 49.378C738.492 49.378 737.814 49.654 737.31 50.206C736.806 50.746 736.554 51.532 736.554 52.564V58H734.934V52.42C734.934 51.436 734.688 50.686 734.196 50.17C733.716 49.642 733.062 49.378 732.234 49.378C731.382 49.378 730.704 49.654 730.2 50.206C729.696 50.746 729.444 51.532 729.444 52.564V58H727.806V48.136H729.444V49.558C729.768 49.042 730.2 48.646 730.74 48.37C731.292 48.094 731.898 47.956 732.558 47.956C733.386 47.956 734.118 48.142 734.754 48.514C735.39 48.886 735.864 49.432 736.176 50.152C736.452 49.456 736.908 48.916 737.544 48.532C738.18 48.148 738.888 47.956 739.668 47.956ZM755.351 52.69C755.351 53.002 755.333 53.332 755.297 53.68H747.413C747.473 54.652 747.803 55.414 748.403 55.966C749.015 56.506 749.753 56.776 750.617 56.776C751.325 56.776 751.913 56.614 752.381 56.29C752.861 55.954 753.197 55.51 753.389 54.958H755.153C754.889 55.906 754.361 56.68 753.569 57.28C752.777 57.868 751.793 58.162 750.617 58.162C749.681 58.162 748.841 57.952 748.097 57.532C747.365 57.112 746.789 56.518 746.369 55.75C745.949 54.97 745.739 54.07 745.739 53.05C745.739 52.03 745.943 51.136 746.351 50.368C746.759 49.6 747.329 49.012 748.061 48.604C748.805 48.184 749.657 47.974 750.617 47.974C751.553 47.974 752.381 48.178 753.101 48.586C753.821 48.994 754.373 49.558 754.757 50.278C755.153 50.986 755.351 51.79 755.351 52.69ZM753.659 52.348C753.659 51.724 753.521 51.19 753.245 50.746C752.969 50.29 752.591 49.948 752.111 49.72C751.643 49.48 751.121 49.36 750.545 49.36C749.717 49.36 749.009 49.624 748.421 50.152C747.845 50.68 747.515 51.412 747.431 52.348H753.659ZM762.319 47.956C763.519 47.956 764.491 48.322 765.235 49.054C765.979 49.774 766.351 50.818 766.351 52.186V58H764.731V52.42C764.731 51.436 764.485 50.686 763.993 50.17C763.501 49.642 762.829 49.378 761.977 49.378C761.113 49.378 760.423 49.648 759.907 50.188C759.403 50.728 759.151 51.514 759.151 52.546V58H757.513V48.136H759.151V49.54C759.475 49.036 759.913 48.646 760.465 48.37C761.029 48.094 761.647 47.956 762.319 47.956ZM771.025 49.486V55.3C771.025 55.78 771.127 56.122 771.331 56.326C771.535 56.518 771.889 56.614 772.393 56.614H773.599V58H772.123C771.211 58 770.527 57.79 770.071 57.37C769.615 56.95 769.387 56.26 769.387 55.3V49.486H768.109V48.136H769.387V45.652H771.025V48.136H773.599V49.486H771.025ZM782.02 49.972C782.356 49.384 782.848 48.904 783.496 48.532C784.144 48.16 784.882 47.974 785.71 47.974C786.598 47.974 787.396 48.184 788.104 48.604C788.812 49.024 789.37 49.618 789.778 50.386C790.186 51.142 790.39 52.024 790.39 53.032C790.39 54.028 790.186 54.916 789.778 55.696C789.37 56.476 788.806 57.082 788.086 57.514C787.378 57.946 786.586 58.162 785.71 58.162C784.858 58.162 784.108 57.976 783.46 57.604C782.824 57.232 782.344 56.758 782.02 56.182V58H780.382V44.68H782.02V49.972ZM788.716 53.032C788.716 52.288 788.566 51.64 788.266 51.088C787.966 50.536 787.558 50.116 787.042 49.828C786.538 49.54 785.98 49.396 785.368 49.396C784.768 49.396 784.21 49.546 783.694 49.846C783.19 50.134 782.782 50.56 782.47 51.124C782.17 51.676 782.02 52.318 782.02 53.05C782.02 53.794 782.17 54.448 782.47 55.012C782.782 55.564 783.19 55.99 783.694 56.29C784.21 56.578 784.768 56.722 785.368 56.722C785.98 56.722 786.538 56.578 787.042 56.29C787.558 55.99 787.966 55.564 788.266 55.012C788.566 54.448 788.716 53.788 788.716 53.032ZM801.042 48.136L795.102 62.644H793.41L795.354 57.892L791.376 48.136H793.194L796.29 56.128L799.35 48.136H801.042Z" fill="white"/>
<path d="M65.4576 43.512C66.939 43.512 68.259 43.8493 69.4176 44.524C70.5763 45.184 71.471 46.108 72.1016 47.296C72.747 48.4693 73.0696 49.8113 73.0696 51.322C73.0696 52.8327 72.747 54.182 72.1016 55.37C71.471 56.5433 70.5763 57.4673 69.4176 58.142C68.259 58.802 66.939 59.132 65.4576 59.132C63.9616 59.132 62.6343 58.802 61.4756 58.142C60.317 57.4673 59.415 56.5433 58.7696 55.37C58.1243 54.182 57.8016 52.8327 57.8016 51.322C57.8016 49.8113 58.1243 48.4693 58.7696 47.296C59.415 46.108 60.317 45.184 61.4756 44.524C62.6343 43.8493 63.9616 43.512 65.4576 43.512ZM65.4576 44.392C64.0936 44.392 62.9056 44.6853 61.8936 45.272C60.8816 45.844 60.1043 46.6507 59.5616 47.692C59.019 48.7333 58.7476 49.9433 58.7476 51.322C58.7476 52.686 59.019 53.896 59.5616 54.952C60.1043 55.9933 60.8816 56.8073 61.8936 57.394C62.9056 57.9807 64.0936 58.274 65.4576 58.274C66.807 58.274 67.9803 57.9807 68.9776 57.394C69.9896 56.8073 70.767 55.9933 71.3096 54.952C71.8523 53.896 72.1236 52.686 72.1236 51.322C72.1236 49.9433 71.8523 48.7333 71.3096 47.692C70.767 46.6507 69.9896 45.844 68.9776 45.272C67.9803 44.6853 66.807 44.392 65.4576 44.392ZM65.4136 46.218C64.5336 46.218 63.727 46.4233 62.9936 46.834C62.275 47.2447 61.703 47.8387 61.2776 48.616C60.8523 49.3787 60.6396 50.2733 60.6396 51.3C60.6396 52.3267 60.8523 53.2287 61.2776 54.006C61.703 54.7687 62.275 55.3627 62.9936 55.788C63.727 56.1987 64.5336 56.404 65.4136 56.404C66.5136 56.404 67.467 56.1107 68.2736 55.524C69.0803 54.9227 69.6303 54.1233 69.9236 53.126H68.0756C67.6356 54.3433 66.7483 54.952 65.4136 54.952C64.5336 54.952 63.815 54.6367 63.2576 54.006C62.7003 53.3753 62.4216 52.4807 62.4216 51.322C62.4216 50.1487 62.7003 49.2467 63.2576 48.616C63.815 47.9853 64.5336 47.67 65.4136 47.67C66.059 47.67 66.6163 47.8313 67.0856 48.154C67.555 48.462 67.885 48.9093 68.0756 49.496H69.9236C69.645 48.4547 69.1023 47.648 68.2956 47.076C67.489 46.504 66.5283 46.218 65.4136 46.218ZM75.2695 57.394C77.1321 55.898 78.5915 54.6733 79.6475 53.72C80.7035 52.752 81.5908 51.7473 82.3095 50.706C83.0428 49.65 83.4095 48.616 83.4095 47.604C83.4095 46.6507 83.1748 45.9027 82.7055 45.36C82.2508 44.8027 81.5101 44.524 80.4835 44.524C79.4861 44.524 78.7088 44.8393 78.1515 45.47C77.6088 46.086 77.3155 46.9147 77.2715 47.956H75.3355C75.3941 46.3133 75.8928 45.0447 76.8315 44.15C77.7701 43.2553 78.9801 42.808 80.4615 42.808C81.9721 42.808 83.1675 43.226 84.0475 44.062C84.9421 44.898 85.3895 46.0493 85.3895 47.516C85.3895 48.7333 85.0228 49.9213 84.2895 51.08C83.5708 52.224 82.7495 53.236 81.8255 54.116C80.9015 54.9813 79.7208 55.9933 78.2835 57.152H85.8515V58.824H75.2695V57.394ZM88.1658 50.882C88.1658 48.3593 88.5764 46.394 89.3978 44.986C90.2191 43.5633 91.6564 42.852 93.7098 42.852C95.7484 42.852 97.1784 43.5633 97.9998 44.986C98.8211 46.394 99.2318 48.3593 99.2318 50.882C99.2318 53.4487 98.8211 55.4433 97.9998 56.866C97.1784 58.2887 95.7484 59 93.7098 59C91.6564 59 90.2191 58.2887 89.3978 56.866C88.5764 55.4433 88.1658 53.4487 88.1658 50.882ZM97.2518 50.882C97.2518 49.606 97.1638 48.528 96.9878 47.648C96.8264 46.7533 96.4818 46.0347 95.9538 45.492C95.4404 44.9493 94.6924 44.678 93.7098 44.678C92.7124 44.678 91.9498 44.9493 91.4218 45.492C90.9084 46.0347 90.5638 46.7533 90.3878 47.648C90.2264 48.528 90.1458 49.606 90.1458 50.882C90.1458 52.202 90.2264 53.3093 90.3878 54.204C90.5638 55.0987 90.9084 55.8173 91.4218 56.36C91.9498 56.9027 92.7124 57.174 93.7098 57.174C94.6924 57.174 95.4404 56.9027 95.9538 56.36C96.4818 55.8173 96.8264 55.0987 96.9878 54.204C97.1638 53.3093 97.2518 52.202 97.2518 50.882ZM101.738 57.394C103.601 55.898 105.06 54.6733 106.116 53.72C107.172 52.752 108.06 51.7473 108.778 50.706C109.512 49.65 109.878 48.616 109.878 47.604C109.878 46.6507 109.644 45.9027 109.174 45.36C108.72 44.8027 107.979 44.524 106.952 44.524C105.955 44.524 105.178 44.8393 104.62 45.47C104.078 46.086 103.784 46.9147 103.74 47.956H101.804C101.863 46.3133 102.362 45.0447 103.3 44.15C104.239 43.2553 105.449 42.808 106.93 42.808C108.441 42.808 109.636 43.226 110.516 44.062C111.411 44.898 111.858 46.0493 111.858 47.516C111.858 48.7333 111.492 49.9213 110.758 51.08C110.04 52.224 109.218 53.236 108.294 54.116C107.37 54.9813 106.19 55.9933 104.752 57.152H112.32V58.824H101.738V57.394ZM114.393 57.394C116.255 55.898 117.715 54.6733 118.771 53.72C119.827 52.752 120.714 51.7473 121.433 50.706C122.166 49.65 122.533 48.616 122.533 47.604C122.533 46.6507 122.298 45.9027 121.829 45.36C121.374 44.8027 120.633 44.524 119.607 44.524C118.609 44.524 117.832 44.8393 117.275 45.47C116.732 46.086 116.439 46.9147 116.395 47.956H114.459C114.517 46.3133 115.016 45.0447 115.955 44.15C116.893 43.2553 118.103 42.808 119.585 42.808C121.095 42.808 122.291 43.226 123.171 44.062C124.065 44.898 124.513 46.0493 124.513 47.516C124.513 48.7333 124.146 49.9213 123.413 51.08C122.694 52.224 121.873 53.236 120.949 54.116C120.025 54.9813 118.844 55.9933 117.407 57.152H124.975V58.824H114.393V57.394ZM142.548 55.59H135.86L134.628 59H132.516L138.06 43.754H140.37L145.892 59H143.78L142.548 55.59ZM141.976 53.962L139.204 46.218L136.432 53.962H141.976ZM150.31 42.72V59H148.308V42.72H150.31ZM155.724 42.72V59H153.722V42.72H155.724ZM167.004 48.902C167.356 48.2127 167.854 47.6773 168.5 47.296C169.16 46.9147 169.959 46.724 170.898 46.724V48.792H170.37C168.126 48.792 167.004 50.0093 167.004 52.444V59H165.002V46.944H167.004V48.902ZM174.243 44.986C173.861 44.986 173.539 44.854 173.275 44.59C173.011 44.326 172.879 44.0033 172.879 43.622C172.879 43.2407 173.011 42.918 173.275 42.654C173.539 42.39 173.861 42.258 174.243 42.258C174.609 42.258 174.917 42.39 175.167 42.654C175.431 42.918 175.563 43.2407 175.563 43.622C175.563 44.0033 175.431 44.326 175.167 44.59C174.917 44.854 174.609 44.986 174.243 44.986ZM175.211 46.944V59H173.209V46.944H175.211ZM183.595 46.746C184.636 46.746 185.545 46.9733 186.323 47.428C187.115 47.8827 187.701 48.4547 188.083 49.144V46.944H190.107V59.264C190.107 60.364 189.872 61.3393 189.403 62.19C188.933 63.0553 188.259 63.73 187.379 64.214C186.513 64.698 185.501 64.94 184.343 64.94C182.759 64.94 181.439 64.566 180.383 63.818C179.327 63.07 178.703 62.0507 178.513 60.76H180.493C180.713 61.4933 181.167 62.08 181.857 62.52C182.546 62.9747 183.375 63.202 184.343 63.202C185.443 63.202 186.337 62.8573 187.027 62.168C187.731 61.4787 188.083 60.5107 188.083 59.264V56.734C187.687 57.438 187.1 58.0247 186.323 58.494C185.545 58.9633 184.636 59.198 183.595 59.198C182.524 59.198 181.549 58.934 180.669 58.406C179.803 57.878 179.121 57.1373 178.623 56.184C178.124 55.2307 177.875 54.1453 177.875 52.928C177.875 51.696 178.124 50.618 178.623 49.694C179.121 48.7553 179.803 48.0293 180.669 47.516C181.549 47.0027 182.524 46.746 183.595 46.746ZM188.083 52.95C188.083 52.0407 187.899 51.2487 187.533 50.574C187.166 49.8993 186.667 49.386 186.037 49.034C185.421 48.6673 184.739 48.484 183.991 48.484C183.243 48.484 182.561 48.66 181.945 49.012C181.329 49.364 180.837 49.8773 180.471 50.552C180.104 51.2267 179.921 52.0187 179.921 52.928C179.921 53.852 180.104 54.6587 180.471 55.348C180.837 56.0227 181.329 56.5433 181.945 56.91C182.561 57.262 183.243 57.438 183.991 57.438C184.739 57.438 185.421 57.262 186.037 56.91C186.667 56.5433 187.166 56.0227 187.533 55.348C187.899 54.6587 188.083 53.8593 188.083 52.95ZM199.474 46.724C200.383 46.724 201.205 46.922 201.938 47.318C202.671 47.6993 203.243 48.2787 203.654 49.056C204.079 49.8333 204.292 50.7793 204.292 51.894V59H202.312V52.18C202.312 50.9773 202.011 50.0607 201.41 49.43C200.809 48.7847 199.987 48.462 198.946 48.462C197.89 48.462 197.047 48.792 196.416 49.452C195.8 50.112 195.492 51.0727 195.492 52.334V59H193.49V42.72H195.492V48.66C195.888 48.044 196.431 47.5673 197.12 47.23C197.824 46.8927 198.609 46.724 199.474 46.724ZM210.004 48.594V55.7C210.004 56.2867 210.129 56.7047 210.378 56.954C210.627 57.1887 211.06 57.306 211.676 57.306H213.15V59H211.346C210.231 59 209.395 58.7433 208.838 58.23C208.281 57.7167 208.002 56.8733 208.002 55.7V48.594H206.44V46.944H208.002V43.908H210.004V46.944H213.15V48.594H210.004ZM219.844 59.198C218.92 59.198 218.091 59.044 217.358 58.736C216.625 58.4133 216.045 57.9733 215.62 57.416C215.195 56.844 214.96 56.1913 214.916 55.458H216.984C217.043 56.0593 217.321 56.5507 217.82 56.932C218.333 57.3133 219.001 57.504 219.822 57.504C220.585 57.504 221.186 57.3353 221.626 56.998C222.066 56.6607 222.286 56.2353 222.286 55.722C222.286 55.194 222.051 54.8053 221.582 54.556C221.113 54.292 220.387 54.0353 219.404 53.786C218.509 53.5513 217.776 53.3167 217.204 53.082C216.647 52.8327 216.163 52.4733 215.752 52.004C215.356 51.52 215.158 50.8893 215.158 50.112C215.158 49.496 215.341 48.9313 215.708 48.418C216.075 47.9047 216.595 47.5013 217.27 47.208C217.945 46.9 218.715 46.746 219.58 46.746C220.915 46.746 221.993 47.0833 222.814 47.758C223.635 48.4327 224.075 49.3567 224.134 50.53H222.132C222.088 49.8993 221.831 49.3933 221.362 49.012C220.907 48.6307 220.291 48.44 219.514 48.44C218.795 48.44 218.223 48.594 217.798 48.902C217.373 49.21 217.16 49.6133 217.16 50.112C217.16 50.508 217.285 50.838 217.534 51.102C217.798 51.3513 218.121 51.5567 218.502 51.718C218.898 51.8647 219.441 52.0333 220.13 52.224C220.995 52.4587 221.699 52.6933 222.242 52.928C222.785 53.148 223.247 53.4853 223.628 53.94C224.024 54.3947 224.229 54.9887 224.244 55.722C224.244 56.382 224.061 56.976 223.694 57.504C223.327 58.032 222.807 58.45 222.132 58.758C221.472 59.0513 220.709 59.198 219.844 59.198ZM234.937 48.902C235.289 48.2127 235.788 47.6773 236.433 47.296C237.093 46.9147 237.893 46.724 238.831 46.724V48.792H238.303C236.059 48.792 234.937 50.0093 234.937 52.444V59H232.935V46.944H234.937V48.902ZM252.142 52.51C252.142 52.8913 252.12 53.2947 252.076 53.72H242.44C242.514 54.908 242.917 55.8393 243.65 56.514C244.398 57.174 245.3 57.504 246.356 57.504C247.222 57.504 247.94 57.306 248.512 56.91C249.099 56.4993 249.51 55.9567 249.744 55.282H251.9C251.578 56.4407 250.932 57.3867 249.964 58.12C248.996 58.8387 247.794 59.198 246.356 59.198C245.212 59.198 244.186 58.9413 243.276 58.428C242.382 57.9147 241.678 57.1887 241.164 56.25C240.651 55.2967 240.394 54.1967 240.394 52.95C240.394 51.7033 240.644 50.6107 241.142 49.672C241.641 48.7333 242.338 48.0147 243.232 47.516C244.142 47.0027 245.183 46.746 246.356 46.746C247.5 46.746 248.512 46.9953 249.392 47.494C250.272 47.9927 250.947 48.682 251.416 49.562C251.9 50.4273 252.142 51.41 252.142 52.51ZM250.074 52.092C250.074 51.3293 249.906 50.6767 249.568 50.134C249.231 49.5767 248.769 49.1587 248.182 48.88C247.61 48.5867 246.972 48.44 246.268 48.44C245.256 48.44 244.391 48.7627 243.672 49.408C242.968 50.0533 242.565 50.948 242.462 52.092H250.074ZM259.053 59.198C258.129 59.198 257.3 59.044 256.567 58.736C255.833 58.4133 255.254 57.9733 254.829 57.416C254.403 56.844 254.169 56.1913 254.125 55.458H256.193C256.251 56.0593 256.53 56.5507 257.029 56.932C257.542 57.3133 258.209 57.504 259.031 57.504C259.793 57.504 260.395 57.3353 260.835 56.998C261.275 56.6607 261.495 56.2353 261.495 55.722C261.495 55.194 261.26 54.8053 260.791 54.556C260.321 54.292 259.595 54.0353 258.613 53.786C257.718 53.5513 256.985 53.3167 256.413 53.082C255.855 52.8327 255.371 52.4733 254.961 52.004C254.565 51.52 254.367 50.8893 254.367 50.112C254.367 49.496 254.55 48.9313 254.917 48.418C255.283 47.9047 255.804 47.5013 256.479 47.208C257.153 46.9 257.923 46.746 258.789 46.746C260.123 46.746 261.201 47.0833 262.023 47.758C262.844 48.4327 263.284 49.3567 263.343 50.53H261.341C261.297 49.8993 261.04 49.3933 260.571 49.012C260.116 48.6307 259.5 48.44 258.723 48.44C258.004 48.44 257.432 48.594 257.007 48.902C256.581 49.21 256.369 49.6133 256.369 50.112C256.369 50.508 256.493 50.838 256.743 51.102C257.007 51.3513 257.329 51.5567 257.711 51.718C258.107 51.8647 258.649 52.0333 259.339 52.224C260.204 52.4587 260.908 52.6933 261.451 52.928C261.993 53.148 262.455 53.4853 262.837 53.94C263.233 54.3947 263.438 54.9887 263.453 55.722C263.453 56.382 263.269 56.976 262.903 57.504C262.536 58.032 262.015 58.45 261.341 58.758C260.681 59.0513 259.918 59.198 259.053 59.198ZM277.279 52.51C277.279 52.8913 277.257 53.2947 277.213 53.72H267.577C267.65 54.908 268.054 55.8393 268.787 56.514C269.535 57.174 270.437 57.504 271.493 57.504C272.358 57.504 273.077 57.306 273.649 56.91C274.236 56.4993 274.646 55.9567 274.881 55.282H277.037C276.714 56.4407 276.069 57.3867 275.101 58.12C274.133 58.8387 272.93 59.198 271.493 59.198C270.349 59.198 269.322 58.9413 268.413 58.428C267.518 57.9147 266.814 57.1887 266.301 56.25C265.788 55.2967 265.531 54.1967 265.531 52.95C265.531 51.7033 265.78 50.6107 266.279 49.672C266.778 48.7333 267.474 48.0147 268.369 47.516C269.278 47.0027 270.32 46.746 271.493 46.746C272.637 46.746 273.649 46.9953 274.529 47.494C275.409 47.9927 276.084 48.682 276.553 49.562C277.037 50.4273 277.279 51.41 277.279 52.51ZM275.211 52.092C275.211 51.3293 275.042 50.6767 274.705 50.134C274.368 49.5767 273.906 49.1587 273.319 48.88C272.747 48.5867 272.109 48.44 271.405 48.44C270.393 48.44 269.528 48.7627 268.809 49.408C268.105 50.0533 267.702 50.948 267.599 52.092H275.211ZM281.924 48.902C282.276 48.2127 282.774 47.6773 283.42 47.296C284.08 46.9147 284.879 46.724 285.818 46.724V48.792H285.29C283.046 48.792 281.924 50.0093 281.924 52.444V59H279.922V46.944H281.924V48.902ZM292.617 57.152L296.357 46.944H298.491L293.761 59H291.429L286.699 46.944H288.855L292.617 57.152ZM311.461 52.51C311.461 52.8913 311.439 53.2947 311.395 53.72H301.759C301.832 54.908 302.235 55.8393 302.969 56.514C303.717 57.174 304.619 57.504 305.675 57.504C306.54 57.504 307.259 57.306 307.831 56.91C308.417 56.4993 308.828 55.9567 309.063 55.282H311.219C310.896 56.4407 310.251 57.3867 309.283 58.12C308.315 58.8387 307.112 59.198 305.675 59.198C304.531 59.198 303.504 58.9413 302.595 58.428C301.7 57.9147 300.996 57.1887 300.483 56.25C299.969 55.2967 299.713 54.1967 299.713 52.95C299.713 51.7033 299.962 50.6107 300.461 49.672C300.959 48.7333 301.656 48.0147 302.551 47.516C303.46 47.0027 304.501 46.746 305.675 46.746C306.819 46.746 307.831 46.9953 308.711 47.494C309.591 47.9927 310.265 48.682 310.735 49.562C311.219 50.4273 311.461 51.41 311.461 52.51ZM309.393 52.092C309.393 51.3293 309.224 50.6767 308.887 50.134C308.549 49.5767 308.087 49.1587 307.501 48.88C306.929 48.5867 306.291 48.44 305.587 48.44C304.575 48.44 303.709 48.7627 302.991 49.408C302.287 50.0533 301.883 50.948 301.781 52.092H309.393ZM313.355 52.928C313.355 51.696 313.605 50.618 314.103 49.694C314.602 48.7553 315.284 48.0293 316.149 47.516C317.029 47.0027 318.012 46.746 319.097 46.746C320.036 46.746 320.909 46.966 321.715 47.406C322.522 47.8313 323.138 48.396 323.563 49.1V42.72H325.587V59H323.563V56.734C323.167 57.4527 322.581 58.0467 321.803 58.516C321.026 58.9707 320.117 59.198 319.075 59.198C318.005 59.198 317.029 58.934 316.149 58.406C315.284 57.878 314.602 57.1373 314.103 56.184C313.605 55.2307 313.355 54.1453 313.355 52.928ZM323.563 52.95C323.563 52.0407 323.38 51.2487 323.013 50.574C322.647 49.8993 322.148 49.386 321.517 49.034C320.901 48.6673 320.219 48.484 319.471 48.484C318.723 48.484 318.041 48.66 317.425 49.012C316.809 49.364 316.318 49.8773 315.951 50.552C315.585 51.2267 315.401 52.0187 315.401 52.928C315.401 53.852 315.585 54.6587 315.951 55.348C316.318 56.0227 316.809 56.5433 317.425 56.91C318.041 57.262 318.723 57.438 319.471 57.438C320.219 57.438 320.901 57.262 321.517 56.91C322.148 56.5433 322.647 56.0227 323.013 55.348C323.38 54.6587 323.563 53.8593 323.563 52.95Z" fill="white"/>
</svg>
