<svg width="126" height="23" viewBox="0 0 126 23" fill="none" xmlns="http://www.w3.org/2000/svg">
<path d="M30.2932 10.5672L30.1837 10.0166H30.129C30.0347 10.1352 29.9039 10.2447 29.7427 10.3482C29.3898 10.5672 28.9853 10.6797 28.5321 10.6797C27.9146 10.6797 27.4219 10.5154 27.0508 10.1839C26.6797 9.85235 26.4941 9.45086 26.4941 8.97331C26.4941 8.40146 26.6919 7.9452 27.0903 7.60757C27.4857 7.26994 28.0606 7.10266 28.8089 7.10266H30.0742V6.99315C30.0742 6.67681 29.983 6.42435 29.8035 6.23272C29.6241 6.04109 29.3838 5.9468 29.0826 5.9468C28.7967 5.9468 28.5655 6.0198 28.3952 6.1658C28.2218 6.31181 28.1215 6.4791 28.091 6.6616H26.7162C26.7831 6.15668 27.0173 5.72475 27.4219 5.37496C27.8264 5.02212 28.38 4.8457 29.0857 4.8457C29.7914 4.8457 30.3602 5.05254 30.7982 5.46317C31.2362 5.8738 31.4521 6.38481 31.4521 6.99315V10.5702H30.2932V10.5672ZM30.0742 8.31022V8.14596H28.9184C28.2218 8.14596 27.872 8.38322 27.872 8.86076C27.872 9.07977 27.9481 9.25619 28.1032 9.38394C28.2583 9.51169 28.4743 9.57556 28.7511 9.57556C29.1708 9.57556 29.4933 9.46302 29.7244 9.24098C29.9586 9.01589 30.0742 8.70564 30.0742 8.31022Z" fill="white"/>
<path d="M32.3311 10.5673V2.85962H33.7059V5.55762H33.7607C33.8641 5.42682 33.9918 5.30819 34.147 5.20478C34.5059 4.96144 34.9104 4.84281 35.3576 4.84281C36.0906 4.84281 36.705 5.11352 37.2008 5.65191C37.6966 6.19029 37.943 6.89292 37.943 7.75981C37.943 8.6267 37.6966 9.32934 37.2008 9.86772C36.705 10.4061 36.0906 10.6768 35.3576 10.6768C34.8739 10.6768 34.4542 10.5582 34.1013 10.324C33.9462 10.2206 33.8154 10.0989 33.7059 9.96202H33.6512L33.5417 10.5673H32.3311V10.5673ZM34.1013 8.9765C34.366 9.26546 34.7097 9.41147 35.1355 9.41147C35.5614 9.41147 35.9051 9.26546 36.1697 8.9765C36.4343 8.68753 36.5651 8.27994 36.5651 7.75981C36.5651 7.23968 36.4343 6.83209 36.1697 6.54313C35.9051 6.25416 35.5614 6.10816 35.1355 6.10816C34.7097 6.10816 34.366 6.25416 34.1013 6.54313C33.8367 6.83209 33.7059 7.23968 33.7059 7.75981C33.7059 8.27994 33.8397 8.68449 34.1013 8.9765Z" fill="white"/>
<path d="M38.6052 10.5673V2.85962H39.9801V5.55762H40.0348C40.1383 5.42682 40.266 5.30819 40.4211 5.20478C40.78 4.96144 41.1846 4.84281 41.6317 4.84281C42.3648 4.84281 42.9792 5.11352 43.475 5.65191C43.9708 6.19029 44.2172 6.89292 44.2172 7.75981C44.2172 8.6267 43.9708 9.32934 43.475 9.86772C42.9792 10.4061 42.3648 10.6768 41.6317 10.6768C41.1481 10.6768 40.7283 10.5582 40.3755 10.324C40.2204 10.2206 40.0896 10.0989 39.9801 9.96202H39.9253L39.8158 10.5673H38.6052V10.5673ZM40.3785 8.9765C40.6432 9.26546 40.9869 9.41147 41.4127 9.41147C41.8386 9.41147 42.1823 9.26546 42.4469 8.9765C42.7115 8.68753 42.8423 8.27994 42.8423 7.75981C42.8423 7.23968 42.7115 6.83209 42.4469 6.54313C42.1823 6.25416 41.8386 6.10816 41.4127 6.10816C40.9869 6.10816 40.6432 6.25416 40.3785 6.54313C40.1139 6.83209 39.9831 7.23968 39.9831 7.75981C39.9801 8.27994 40.1139 8.68449 40.3785 8.9765Z" fill="white"/>
<path d="M48.3489 10.5672L48.2394 10.0166H48.1846C48.0904 10.1352 47.9596 10.2447 47.7983 10.3482C47.4455 10.5672 47.041 10.6797 46.5877 10.6797C45.9703 10.6797 45.4775 10.5154 45.1064 10.1839C44.7353 9.85235 44.5498 9.45086 44.5498 8.97331C44.5498 8.40146 44.7475 7.9452 45.146 7.60757C45.5414 7.26994 46.1163 7.10266 46.8645 7.10266H48.1299V6.99315C48.1299 6.67681 48.0386 6.42435 47.8592 6.23272C47.6797 6.04109 47.4394 5.9468 47.1383 5.9468C46.8524 5.9468 46.6212 6.0198 46.4509 6.1658C46.2775 6.31181 46.1771 6.4791 46.1467 6.6616H44.7718C44.8388 6.15668 45.073 5.72475 45.4775 5.37496C45.8821 5.02212 46.4357 4.8457 47.1413 4.8457C47.847 4.8457 48.4158 5.05254 48.8538 5.46317C49.2918 5.8738 49.5078 6.38481 49.5078 6.99315V10.5702H48.3489V10.5672ZM48.1299 8.31022V8.14596H46.974C46.2775 8.14596 45.9277 8.38322 45.9277 8.86076C45.9277 9.07977 46.0037 9.25619 46.1589 9.38394C46.314 9.51169 46.53 9.57556 46.8067 9.57556C47.2265 9.57556 47.5489 9.46302 47.7801 9.24098C48.0143 9.01589 48.1299 8.70564 48.1299 8.31022Z" fill="white"/>
<path d="M30.3379 17.4708H31.6732C31.6245 17.7141 31.5424 17.9483 31.4329 18.1765C31.3234 18.4046 31.1713 18.6297 30.9797 18.8548C30.788 19.0799 30.5295 19.2593 30.204 19.3992C29.8816 19.5391 29.5166 19.6061 29.109 19.6061C28.306 19.6061 27.6399 19.3414 27.1197 18.8122C26.5965 18.2829 26.335 17.6046 26.335 16.7773C26.335 15.953 26.5965 15.2747 27.1197 14.7424C27.6429 14.2131 28.306 13.9485 29.109 13.9485C29.5135 13.9485 29.8786 14.0184 30.204 14.1553C30.5264 14.2952 30.785 14.4747 30.9797 14.6937C31.1713 14.9158 31.3234 15.1348 31.4329 15.3568C31.5424 15.5788 31.6245 15.8009 31.6732 16.029H30.3379C30.1249 15.4602 29.7143 15.1743 29.109 15.1743C28.7045 15.1743 28.3607 15.3233 28.0839 15.6214C27.8071 15.9195 27.6672 16.3058 27.6672 16.7742C27.6672 17.2427 27.8071 17.629 28.0839 17.927C28.3607 18.2251 28.7045 18.3742 29.109 18.3742C29.7386 18.3772 30.1462 18.0761 30.3379 17.4708Z" fill="white"/>
<path d="M32.724 14.7424C33.2471 14.2131 33.9102 13.9485 34.7133 13.9485C35.5163 13.9485 36.1824 14.2131 36.7056 14.7424C37.2287 15.2716 37.4903 15.9499 37.4903 16.7773C37.4903 17.6016 37.2287 18.2799 36.7056 18.8122C36.1824 19.3414 35.5193 19.6061 34.7133 19.6061C33.9102 19.6061 33.2441 19.3414 32.724 18.8122C32.2008 18.2829 31.9392 17.6046 31.9392 16.7773C31.9392 15.953 32.2008 15.2747 32.724 14.7424ZM33.6882 17.9301C33.965 18.2282 34.3087 18.3772 34.7133 18.3772C35.1178 18.3772 35.4615 18.2282 35.7383 17.9301C36.0151 17.632 36.155 17.2457 36.155 16.7773C36.155 16.3089 36.0151 15.9226 35.7383 15.6245C35.4615 15.3264 35.1178 15.1773 34.7133 15.1773C34.3087 15.1773 33.965 15.3264 33.6882 15.6245C33.4114 15.9226 33.2715 16.3089 33.2715 16.7773C33.2745 17.2487 33.4114 17.632 33.6882 17.9301Z" fill="white"/>
<path d="M42.0811 19.5018L41.9747 18.9148H41.9199C41.8134 19.0516 41.6857 19.1672 41.5366 19.2676C41.196 19.4957 40.7884 19.6083 40.32 19.6083C39.6082 19.6083 39.012 19.3467 38.5314 18.8235C38.0508 18.3003 37.8105 17.619 37.8105 16.7795C37.8105 15.94 38.0508 15.2586 38.5314 14.7355C39.012 14.2123 39.6082 13.9507 40.32 13.9507C40.7458 13.9507 41.1382 14.0693 41.4941 14.3035C41.6431 14.4039 41.7678 14.5164 41.8682 14.6442H41.9229V12.0283H43.2583V19.5018H42.0811ZM39.5291 17.9597C39.7846 18.2395 40.1192 18.3825 40.5329 18.3825C40.9465 18.3825 41.2811 18.2425 41.5366 17.9597C41.7921 17.6798 41.9199 17.2844 41.9199 16.7795C41.9199 16.2745 41.7921 15.8822 41.5366 15.5993C41.2811 15.3195 40.9465 15.1765 40.5329 15.1765C40.1192 15.1765 39.7846 15.3164 39.5291 15.5993C39.2736 15.8791 39.1459 16.2745 39.1459 16.7795C39.1459 17.2844 39.2736 17.6768 39.5291 17.9597Z" fill="white"/>
<path d="M44.1094 13.2012V11.9207H45.5511V13.2012H44.1094ZM44.1611 19.5006V14.0559H45.4964V19.5006H44.1611Z" fill="white"/>
<path d="M46.3523 19.4996V14.0549H47.5811L47.6876 14.5872H47.7424C47.8275 14.4808 47.9492 14.3743 48.1043 14.2679C48.4328 14.055 48.81 13.9485 49.2358 13.9485C49.8563 13.9485 50.3643 14.1614 50.7689 14.5842C51.1704 15.007 51.3711 15.5606 51.3711 16.245V19.4996H50.0358V16.3514C50.0358 16.0016 49.9263 15.7188 49.7103 15.5028C49.4944 15.2868 49.2115 15.1773 48.8617 15.1773C48.5119 15.1773 48.229 15.2868 48.0131 15.5028C47.7971 15.7188 47.6876 16.0016 47.6876 16.3514V19.4996H46.3523Z" fill="white"/>
<path d="M52.0621 19.768H53.4491C53.4765 19.8806 53.5251 19.9931 53.589 20.0996C53.6529 20.206 53.7746 20.3125 53.9571 20.4159C54.1396 20.5193 54.3616 20.571 54.6232 20.571C55.0065 20.571 55.3167 20.4615 55.5509 20.2395C55.7851 20.0174 55.9038 19.7194 55.9038 19.3422V18.5939H55.849C55.7638 18.6943 55.6422 18.7947 55.487 18.892C55.195 19.0836 54.8179 19.181 54.3555 19.181C53.6499 19.181 53.0659 18.9376 52.6005 18.451C52.1351 17.9643 51.9009 17.3347 51.9009 16.5681C51.9009 15.7986 52.1351 15.172 52.6005 14.6853C53.0659 14.1987 53.6529 13.9553 54.3555 13.9553C54.7966 13.9553 55.189 14.0618 55.5296 14.2747C55.6848 14.3751 55.8095 14.4815 55.9038 14.5941H55.9585L56.065 14.0618H57.2391V19.3574C57.2391 20.0752 57.0018 20.6532 56.5304 21.0912C56.0559 21.5292 55.4232 21.7482 54.6262 21.7482C54.2278 21.7482 53.8689 21.6904 53.5495 21.5778C53.2301 21.4623 52.9807 21.3254 52.8012 21.1611C52.6248 20.9969 52.4758 20.8205 52.3571 20.6288C52.2385 20.4372 52.1625 20.2699 52.1229 20.1269C52.0834 19.9779 52.0621 19.8593 52.0621 19.768ZM55.5235 15.5279C55.268 15.2572 54.9517 15.1233 54.5745 15.1233C54.1974 15.1233 53.881 15.2572 53.6255 15.5279C53.37 15.7986 53.2423 16.1423 53.2423 16.5621C53.2423 16.9818 53.37 17.3286 53.6255 17.5962C53.881 17.867 54.1974 18.0008 54.5745 18.0008C54.9517 18.0008 55.268 17.867 55.5235 17.5962C55.7791 17.3255 55.9068 16.9818 55.9068 16.5621C55.9068 16.1454 55.7791 15.7986 55.5235 15.5279Z" fill="white"/>
<path d="M3.17118 15.0795C4.34528 13.8902 5.83267 13.294 7.63944 13.294C8.54892 13.294 9.36714 13.4491 10.0941 13.7624C10.8211 14.0727 11.399 14.4772 11.8309 14.973C12.2628 15.4688 12.6005 15.9646 12.8499 16.4574C13.0963 16.9532 13.2757 17.455 13.3883 17.9661H10.3952C9.91465 16.6885 8.99605 16.0498 7.63944 16.0498C6.72997 16.0498 5.96346 16.3844 5.33991 17.0566C4.71636 17.7258 4.40611 18.5896 4.40611 19.6451C4.40611 20.7005 4.71636 21.5613 5.33991 22.2336C5.419 22.3187 5.49808 22.3978 5.58325 22.4708H9.21505H9.68043C9.99069 22.1484 10.231 21.7287 10.3983 21.2024H13.3913C13.3031 21.6344 13.1693 22.0572 12.9929 22.4708H22.702L15.046 0.220703H8.11091L3.0495 14.9335L2.88525 15.4141C2.97346 15.2985 3.06776 15.1859 3.17118 15.0795Z" fill="white"/>
<path d="M1.41198 19.665L0.447754 22.4665H1.98382C1.60969 21.6361 1.41502 20.7053 1.41198 19.665Z" fill="white"/>
<path d="M100.961 10.9596L100.853 10.4153H100.799C100.705 10.5326 100.576 10.6408 100.417 10.7431C100.068 10.9596 99.6677 11.0709 99.2196 11.0709C98.6091 11.0709 98.1219 10.9085 97.755 10.5807C97.388 10.2529 97.2046 9.85587 97.2046 9.38369C97.2046 8.81828 97.4001 8.36715 97.7941 8.03332C98.185 7.69948 98.7535 7.53407 99.4933 7.53407H100.744V7.4258C100.744 7.11302 100.654 6.86339 100.477 6.67392C100.299 6.48444 100.062 6.39121 99.764 6.39121C99.4813 6.39121 99.2527 6.46339 99.0843 6.60775C98.9129 6.75211 98.8136 6.91753 98.7835 7.09798H97.4241C97.4903 6.59873 97.7219 6.17166 98.1219 5.8258C98.5219 5.47693 99.0692 5.30249 99.767 5.30249C100.465 5.30249 101.027 5.507 101.46 5.91302C101.893 6.31903 102.107 6.82429 102.107 7.4258V10.9626H100.961V10.9596ZM100.744 8.72805V8.56565H99.6016C98.9129 8.56565 98.567 8.80023 98.567 9.27241C98.567 9.48895 98.6422 9.66339 98.7956 9.78971C98.9489 9.91602 99.1625 9.97918 99.4362 9.97918C99.8512 9.97918 100.17 9.8679 100.399 9.64835C100.63 9.4258 100.744 9.11903 100.744 8.72805Z" fill="white"/>
<path d="M102.975 10.9599V3.33887H104.335V6.00654H104.389C104.491 5.87721 104.617 5.75992 104.771 5.65766C105.126 5.41706 105.526 5.29977 105.968 5.29977C106.693 5.29977 107.3 5.56744 107.79 6.09977C108.281 6.6321 108.524 7.32684 108.524 8.18398C108.524 9.04112 108.281 9.73586 107.79 10.2682C107.3 10.8005 106.693 11.0682 105.968 11.0682C105.49 11.0682 105.075 10.9509 104.726 10.7193C104.572 10.6171 104.443 10.4968 104.335 10.3614H104.281L104.172 10.9599H102.975ZM104.726 9.38699C104.987 9.6727 105.327 9.81706 105.748 9.81706C106.169 9.81706 106.509 9.6727 106.771 9.38699C107.032 9.10127 107.162 8.69827 107.162 8.18398C107.162 7.66969 107.032 7.26669 106.771 6.98097C106.509 6.69526 106.169 6.5509 105.748 6.5509C105.327 6.5509 104.987 6.69526 104.726 6.98097C104.464 7.26669 104.335 7.66969 104.335 8.18398C104.335 8.69827 104.467 9.10127 104.726 9.38699Z" fill="white"/>
<path d="M109.18 10.9599V3.33887H110.54V6.00654H110.594C110.696 5.87721 110.822 5.75992 110.976 5.65766C111.331 5.41706 111.731 5.29977 112.173 5.29977C112.897 5.29977 113.505 5.56744 113.995 6.09977C114.485 6.6321 114.729 7.32684 114.729 8.18398C114.729 9.04112 114.485 9.73586 113.995 10.2682C113.505 10.8005 112.897 11.0682 112.173 11.0682C111.694 11.0682 111.279 10.9509 110.931 10.7193C110.777 10.6171 110.648 10.4968 110.54 10.3614H110.485L110.377 10.9599H109.18ZM110.931 9.38699C111.192 9.6727 111.532 9.81706 111.953 9.81706C112.374 9.81706 112.714 9.6727 112.976 9.38699C113.237 9.10127 113.367 8.69827 113.367 8.18398C113.367 7.66969 113.237 7.26669 112.976 6.98097C112.714 6.69526 112.374 6.5509 111.953 6.5509C111.532 6.5509 111.192 6.69526 110.931 6.98097C110.669 7.26669 110.54 7.66969 110.54 8.18398C110.54 8.69827 110.672 9.10127 110.931 9.38699Z" fill="white"/>
<path d="M118.815 10.9596L118.707 10.4153H118.653C118.56 10.5326 118.43 10.6408 118.271 10.7431C117.922 10.9596 117.522 11.0709 117.074 11.0709C116.463 11.0709 115.976 10.9085 115.609 10.5807C115.242 10.2529 115.059 9.85587 115.059 9.38369C115.059 8.81828 115.254 8.36715 115.648 8.03332C116.039 7.69948 116.608 7.53407 117.348 7.53407H118.599V7.4258C118.599 7.11302 118.508 6.86339 118.331 6.67392C118.154 6.48444 117.916 6.39121 117.618 6.39121C117.336 6.39121 117.107 6.46339 116.939 6.60775C116.767 6.75211 116.668 6.91753 116.638 7.09798H115.278C115.345 6.59873 115.576 6.17166 115.976 5.8258C116.376 5.47693 116.924 5.30249 117.621 5.30249C118.319 5.30249 118.881 5.507 119.314 5.91302C119.748 6.31903 119.961 6.82429 119.961 7.4258V10.9626H118.815V10.9596ZM118.599 8.72805V8.56565H117.456C116.767 8.56565 116.421 8.80023 116.421 9.27241C116.421 9.48895 116.496 9.66339 116.65 9.78971C116.803 9.91602 117.017 9.97918 117.29 9.97918C117.705 9.97918 118.024 9.8679 118.253 9.64835C118.484 9.4258 118.599 9.11903 118.599 8.72805Z" fill="white"/>
<path d="M97.4797 18.9937V13.4418H98.7309L98.8391 13.9862H98.8933C98.9805 13.8689 99.0888 13.7606 99.2211 13.6584C99.5098 13.4418 99.8376 13.3306 100.202 13.3306C100.638 13.3306 101.026 13.4569 101.365 13.7125C101.519 13.8418 101.636 13.9712 101.723 14.0945H101.777C101.871 13.9712 102.003 13.8449 102.168 13.7125C102.523 13.4599 102.938 13.3306 103.411 13.3306C103.985 13.3306 104.472 13.5471 104.875 13.9772C105.278 14.4073 105.48 14.9366 105.48 15.5621V18.9907H104.12V15.6734C104.12 15.3246 104.036 15.0569 103.871 14.8674C103.705 14.6779 103.48 14.5847 103.197 14.5847C102.893 14.5847 102.644 14.687 102.451 14.8945C102.259 15.102 102.162 15.3606 102.162 15.6734V18.9937H100.803V15.6734C100.803 15.3246 100.719 15.0569 100.553 14.8674C100.385 14.6779 100.162 14.5847 99.8797 14.5847C99.576 14.5847 99.3264 14.687 99.1339 14.8945C98.9414 15.102 98.8451 15.3606 98.8451 15.6734V18.9937H97.4797Z" fill="white"/>
<path d="M109.998 17.3619H111.415C111.379 17.5003 111.307 17.6537 111.201 17.8251C111.096 17.9965 110.949 18.183 110.756 18.3905C110.564 18.598 110.302 18.7665 109.968 18.9018C109.634 19.0371 109.264 19.1033 108.858 19.1033C108.037 19.1033 107.361 18.8326 106.828 18.2913C106.296 17.7499 106.028 17.0582 106.028 16.2161C106.028 15.374 106.296 14.6822 106.828 14.1409C107.361 13.5995 108.037 13.3289 108.858 13.3289C109.619 13.3289 110.263 13.5965 110.789 14.1289C111.316 14.6612 111.577 15.3198 111.577 16.1048C111.577 16.171 111.565 16.3003 111.544 16.4958L111.523 16.6492H107.388C107.445 17.0401 107.61 17.3559 107.878 17.5965C108.146 17.8371 108.473 17.9544 108.858 17.9544C109.147 17.9544 109.394 17.8913 109.598 17.7649C109.8 17.6416 109.935 17.5063 109.998 17.3619ZM107.388 15.7289H110.218C110.152 15.3589 110.001 15.0582 109.767 14.8266C109.532 14.595 109.228 14.4777 108.858 14.4777C108.467 14.4777 108.146 14.592 107.896 14.8206C107.643 15.0462 107.475 15.3499 107.388 15.7289Z" fill="white"/>
<path d="M116.255 18.9948L116.147 18.3963H116.093C115.985 18.5346 115.852 18.6549 115.702 18.7542C115.353 18.9858 114.941 19.1031 114.46 19.1031C113.735 19.1031 113.127 18.8354 112.637 18.3031C112.147 17.7707 111.903 17.076 111.903 16.2189C111.903 15.3617 112.147 14.667 112.637 14.1346C113.127 13.6023 113.735 13.3346 114.46 13.3346C114.896 13.3346 115.293 13.4549 115.657 13.6925C115.81 13.7948 115.936 13.9091 116.039 14.0414H116.093V12.0354H117.452V18.9948H116.255ZM113.654 17.4219C113.915 17.7076 114.255 17.8519 114.676 17.8519C115.097 17.8519 115.437 17.7076 115.699 17.4219C115.96 17.1362 116.09 16.7331 116.09 16.2189C116.09 15.7046 115.96 15.3016 115.699 15.0158C115.437 14.7301 115.097 14.5858 114.676 14.5858C114.255 14.5858 113.915 14.7301 113.654 15.0158C113.392 15.3016 113.263 15.7046 113.263 16.2189C113.263 16.7331 113.395 17.1331 113.654 17.4219Z" fill="white"/>
<path d="M118.379 18.9952V13.4434H119.739V18.9952H118.379Z" fill="white"/>
<path d="M124.094 18.9945L123.986 18.4502H123.931C123.838 18.5675 123.709 18.6757 123.549 18.778C123.201 18.9945 122.801 19.1058 122.352 19.1058C121.742 19.1058 121.255 18.9434 120.888 18.6156C120.521 18.2878 120.337 17.8908 120.337 17.4186C120.337 16.8532 120.533 16.4021 120.927 16.0682C121.318 15.7344 121.886 15.569 122.626 15.569H123.877V15.4607C123.877 15.1479 123.787 14.8983 123.61 14.7088C123.432 14.5194 123.195 14.4261 122.897 14.4261C122.614 14.4261 122.386 14.4983 122.217 14.6427C122.046 14.787 121.946 14.9524 121.916 15.1329H120.557C120.623 14.6336 120.855 14.2066 121.255 13.8607C121.655 13.5118 122.202 13.3374 122.9 13.3374C123.598 13.3374 124.16 13.5419 124.593 13.9479C125.026 14.3539 125.24 14.8592 125.24 15.4607V18.9976H124.094V18.9945ZM123.877 16.763V16.6006H122.734C122.046 16.6006 121.7 16.8351 121.7 17.3073C121.7 17.5239 121.775 17.6983 121.928 17.8246C122.082 17.9509 122.295 18.0141 122.569 18.0141C122.984 18.0141 123.303 17.9028 123.531 17.6833C123.763 17.4607 123.877 17.1539 123.877 16.763Z" fill="white"/>
<path d="M79.1956 16.5576C78.6422 16.5576 78.1911 16.7441 77.8392 17.12C77.4904 17.496 77.3159 17.9681 77.3159 18.5366V22.2208H80.8798V18.5366C80.8798 17.905 80.7264 17.4148 80.4257 17.0719C80.1219 16.729 79.7099 16.5576 79.1956 16.5576Z" fill="white"/>
<path d="M75.8722 14.9726C76.1489 15.2102 76.3684 15.4418 76.5248 15.6643H76.6241C76.7955 15.4418 77.0331 15.2102 77.3368 14.9726C77.9835 14.5124 78.7353 14.2809 79.5925 14.2809C80.6361 14.2809 81.5233 14.6748 82.2541 15.4598C82.988 16.2448 83.3519 17.2042 83.3519 18.338V22.2207H93.4451L85.8752 0.220703H79.018L74.1699 14.3049C74.7925 14.3741 75.3609 14.5936 75.8722 14.9726Z" fill="white"/>
<path d="M74.8432 18.5365C74.8432 17.9049 74.6929 17.4147 74.3891 17.0718C74.1305 16.7801 73.7996 16.6147 73.3906 16.5696L71.4478 22.2207H74.8463V18.5365H74.8432Z" fill="white"/>
</svg>
